/* XPM */
static char *close-pressed[] = {
/* columns rows colors chars-per-pixel */
"36 44 120 2",
"   c #0E7BC6",
".  c #0F7CC6",
"X  c #107CC6",
"o  c #117DC7",
"O  c #127DC7",
"+  c #137EC7",
"@  c #147EC7",
"#  c #157FC8",
"$  c #167FC8",
"%  c #1780C8",
"&  c #1881C8",
"*  c #1981C9",
"=  c #1A82C9",
"-  c #1B82C9",
";  c #1C83C9",
":  c #1D83CA",
">  c #1E84CA",
",  c #1F84CA",
"<  c #2185CA",
"1  c #2286CB",
"2  c #2386CB",
"3  c #2487CB",
"4  c #2587CB",
"5  c #2688CC",
"6  c #2788CC",
"7  c #298ACC",
"8  c #2A8BCD",
"9  c #2B8BCD",
"0  c #2C8CCD",
"q  c #2F8DCE",
"w  c #308ECE",
"e  c #338FCF",
"r  c #3490CF",
"t  c #3590CF",
"y  c #3691CF",
"u  c #3892D0",
"i  c #3992D0",
"p  c #3993D0",
"a  c #3B94D1",
"s  c #3C94D1",
"d  c #3F96D2",
"f  c #4096D2",
"g  c #4297D2",
"h  c #479AD3",
"j  c #489BD4",
"k  c #499BD4",
"l  c #4B9DD5",
"z  c #4C9DD5",
"x  c #52A0D6",
"c  c #54A1D7",
"v  c #57A3D7",
"b  c #58A3D7",
"n  c #59A4D7",
"m  c #5CA6D9",
"M  c #5DA6D9",
"N  c #5EA6D9",
"B  c #60A8D9",
"V  c #63A9DA",
"C  c #63AADA",
"Z  c #64ABDB",
"A  c #65ABDB",
"S  c #66ABDB",
"D  c #68ACDB",
"F  c #69ADDC",
"G  c #6AADDC",
"H  c #6BAEDC",
"J  c #6CAEDC",
"K  c #6DAFDC",
"L  c #6EB0DC",
"P  c #6FB0DD",
"I  c #79B5DF",
"U  c #7AB6DF",
"Y  c #7BB7E0",
"T  c #7CB7E0",
"R  c #7DB8E0",
"E  c #7EB8E0",
"W  c #7FB9E1",
"Q  c #81BAE1",
"!  c #82BBE1",
"~  c #88BEE3",
"^  c #8BC0E4",
"/  c #8CC0E4",
"(  c #8DC0E4",
")  c #8DC1E4",
"_  c #8EC1E5",
"`  c #97C6E7",
"'  c #98C6E7",
"]  c #98C7E7",
"[  c #99C7E7",
"{  c #9BC8E7",
"}  c #A1CBE9",
"|  c #A1CCE9",
" . c #A2CCE9",
".. c #A3CDE9",
"X. c #A4CDE9",
"o. c #A4CDEA",
"O. c #A5CEEA",
"+. c #A9D0EB",
"@. c #AAD0EB",
"#. c #AAD1EB",
"$. c #ABD1EB",
"%. c #ACD1EB",
"&. c #ACD2EB",
"*. c #B0D4EC",
"=. c #B1D4ED",
"-. c #B2D4ED",
";. c #B8D8EE",
":. c #BAD9EF",
">. c #BBD9EF",
",. c #BADAEF",
"<. c #BBDAEF",
"1. c #BCDAEF",
"2. c #C3DEF1",
"3. c #C4DEF1",
"4. c #C9E1F2",
"5. c #CAE2F3",
"6. c #D1E6F4",
"7. c #D5E8F5",
"8. c #D6E8F5",
"9. c #DAEBF6",
/* pixels */
"                                                                        ",
"                                                                        ",
"                                                                        ",
"                                                                        ",
"                                                                        ",
"                  .                                                     ",
"              . . . . . . . . .             . . . . . . .               ",
"          . . X . O . O . . . .         . . . . O O O   O . .           ",
"        . X O O @ % % @ O O O . .     . . O O O O % @ O O O O .         ",
"      . . O O % & & & : % % # O . . . O O @ % % & & : @ % @ O . .       ",
"    . . O O & & 3 6 7 6 3 : : @ O O . O % % : 3 6 7 6 3 : % O O . .     ",
"    . X O % : 3 7 r r r q 6 3 & % % % % & 3 7 w r r r q 1 : % O . .     ",
"    . . @ & < 0 u B F j g u q 6 : & & 3 6 q u g j S B u 0 3 % O . . .   ",
"    . O % & 6 r B ~ _ W m z g r 0 6 6 7 r f z v T ` ~ S e 6 & % . .     ",
"    . O % : 6 r F _ ` { ~ S c j s r r s j c S ~ { ` ~ F r 6 : % O .     ",
"    . X @ & 6 r j T {  .O.[ K M c l l c M K [ o.} { W l r 6 & % O .     ",
"    . . # % 1 w g n ~ } @.@.} W F F S F U } #.#.} ~ n g w 1 % % . .     ",
"  . . . X % : 6 y z S ` @.&.-.%.~ ! ! ~ #.-.-.#.{ S z y 0 : % . . .     ",
"    . . . % % 1 w d c L } -.:.<.1.o.O.1.1.:.-.} K c d q 1 & X X .       ",
"    . . . . % & 6 y j m Y @.;.3.5.5.5.5.3.1.&.T m j r 6 : % X .         ",
"        . . % % : 0 y c F ^ ;.5.6.8.8.6.5.:.~ K c s 7 3 % O . .         ",
"          . . # : 6 y l S ! o.5.8.9.9.8.5.o.! S l r 6 & % O . .         ",
"        . . . % : 6 y l S ! } 5.8.9.9.9.5.o.! D l r 6 & % O . .         ",
"        . . # % : 0 y c K ~ :.5.6.8.8.5.5.:.~ K c s 0 : % O . .         ",
"        . O % & 6 r j M Y &.:.2.5.5.5.5.3.;.%.T M j y 6 & % O .         ",
"      . . O % 3 w g c K } -.:.1.;.O.O.;.1.;.-. .K c f w 3 & @ X .       ",
"    . . O % : 7 y z V ' #.%.-.%.~ ! ! ^ %.-.=.@.{ S z y 7 : @ O . .     ",
"    . . O % 3 q g m ~ o.#.#.} U F F S F W  .%.%.o.~ m f w 3 & @ . .     ",
"  . . O O : 6 r l W { } } { K m c z z c m K [ O.O.{ W j r 6 & @ O . .   ",
"  . . O % & 6 r K ~ [ { ~ V c j y u r s j c B ~ { [ ~ S r 7 & % . .     ",
"    . O # : 6 e m ^ ~ W m z g e 0 6 6 0 r g z b W ~ ~ V w 5 : @ O .     ",
"    . X X % < 0 y V F l j y q 6 : & : : 5 w u g j K V r q 3 & @ . .     ",
"    . . O % : 1 0 r y y q 0 < & % % @ % & 1 0 q r r e q 6 & % O O . .   ",
"    . . O O % : < 1 6 6 < : & % O O O O % & : 1 6 6 6 < : % O O . .     ",
"    . . X O O % & & : : % % O O . .   O O O % & & & & % @ @ O . .       ",
"        . . . O @ % % X # O O . .     . . O O O % # # % O O . .         ",
"          . . . . O . O . . . .         . . . . O O . . . . .           ",
"              . . . . . . . . .             . . . . . . . .             ",
"                .                               .                       ",
"                                                                        ",
"                                                                        ",
"                                                                        ",
"                                                                        ",
"                                                                        "
};
