/* XPM */
static char *close-inactive[] = {
/* columns rows colors chars-per-pixel */
"36 44 58 1",
"  c #536B7B",
". c #546C7C",
"X c #586F7F",
"o c #58707F",
"O c #597080",
"+ c #5C7382",
"@ c #5D7483",
"# c #5E7483",
"$ c #5E7584",
"% c #617786",
"& c #637987",
"* c #647A88",
"= c #657A88",
"- c #657B89",
"; c #6B7F8D",
": c #6B808E",
"> c #718592",
", c #728693",
"< c #748794",
"1 c #758895",
"2 c #7D909C",
"3 c #7E909C",
"4 c #81929E",
"5 c #82939F",
"6 c #A3B0B9",
"7 c #A9B5BD",
"8 c #AFBAC1",
"9 c #B3BDC5",
"0 c #B5BFC6",
"q c #C1CACF",
"w c #C3CBD1",
"e c #C4CCD1",
"r c #C5CDD2",
"t c #C6CED3",
"y c #C8CFD5",
"u c #C8D0D5",
"i c #D5DADE",
"p c #D5DBDF",
"a c #D6DCDF",
"s c #DEE3E6",
"d c #DFE3E6",
"f c #E1E5E8",
"g c #E2E6E9",
"h c #E5E9EB",
"j c #E7EBED",
"k c #E8EBED",
"l c #E9ECEE",
"z c #EDF0F2",
"x c #EFF1F3",
"c c #EFF2F3",
"v c #F4F5F6",
"b c #F4F6F7",
"n c #F5F6F7",
"m c #F6F7F8",
"M c #F7F8F9",
"N c #FAFAFB",
"B c #FBFCFC",
"V c gray100",
/* pixels */
"                                    ",
"                                    ",
"                                    ",
"                                    ",
"                                    ",
"                                    ",
"                                    ",
"                                    ",
"                                    ",
"                                    ",
"                                    ",
"                                    ",
"         70.            .88         ",
"        7VVuO          XrVV8        ",
"        9VVVp#        #pVVV9        ",
"        .qVVVg-      &dVVVr.        ",
"         OpVVVk:    ;kVVVp...       ",
"         .OdVVVx<  >xVVVg#          ",
"           %hVVVM52nVVVk&           ",
"            ;xVVVNNVVVx;            ",
"             >nVVVVVVn1             ",
"              2NVVVVB5              ",
"              2NVVVVB5              ",
"             >nVVVVVVn1             ",
"            :xVVVNNVVVc:            ",
"           -kVVVM52nVVVk-           ",
"          #dVVVx<  >xVVVg#          ",
"         opVVVj;    ;jVVVpo         ",
"        .rVVVg-      &dVVVr.        ",
"        9VVVp#        #pVVV9        ",
"        6VVu..         XwVV7        ",
"         79.            .97         ",
"                                    ",
"                                    ",
"                                    ",
"                                    ",
"                                    ",
"                                    ",
"                                    ",
"                                    ",
"                                    ",
"                                    ",
"                                    ",
"                                    "
};
