/* XPM */
static char *close-active[] = {
/* columns rows colors chars-per-pixel */
"36 44 61 1",
"  c #0E7BC6",
". c #0F7CC6",
"X c #107CC6",
"o c #157FC8",
"O c #167FC8",
"+ c #1780C8",
"@ c #1B82C9",
"# c #1C83C9",
"$ c #1D83CA",
"% c #1E84CA",
"& c #2286CB",
"* c #2587CB",
"= c #2688CC",
"- c #2788CC",
"; c #2889CC",
": c #2F8DCE",
"> c #308ECE",
", c #3892D0",
"< c #3992D0",
"1 c #3993D0",
"2 c #3C94D1",
"3 c #3D95D1",
"4 c #4A9CD4",
"5 c #4E9ED5",
"6 c #4F9FD5",
"7 c #7EB9E1",
"8 c #86BDE2",
"9 c #87BDE3",
"0 c #8FC1E4",
"q c #94C5E6",
"w c #97C6E6",
"e c #A8CFEA",
"r c #ABD1EB",
"t c #ACD1EB",
"y c #AED2EC",
"u c #AFD3EC",
"i c #B1D5ED",
"p c #B2D5ED",
"a c #C3DEF1",
"s c #C4DFF1",
"d c #C5DFF1",
"f c #D1E6F4",
"g c #D2E6F4",
"h c #D4E8F5",
"j c #D5E8F5",
"k c #D6E9F5",
"l c #DBEBF7",
"z c #DEEDF7",
"x c #DFEDF7",
"c c #E0EEF8",
"v c #E6F2F9",
"b c #E8F3FA",
"n c #E9F3FA",
"m c #EFF6FB",
"M c #F0F7FB",
"N c #F1F7FC",
"B c #F2F8FC",
"V c #F4F9FC",
"C c #F7FBFD",
"Z c #F9FCFE",
"A c gray100",
/* pixels */
"                                    ",
"                                    ",
"                                    ",
"                                    ",
"                                    ",
"                                    ",
"                                    ",
"                                    ",
"                                    ",
"                                    ",
"                                    ",
"                                    ",
"         9qX.           .00         ",
"        9AAp@          otAA0        ",
"        qAAAa$        $dAAAq        ",
"        .eAAAj;      *gAAAyX        ",
"         odAAAc>    >cAAAao         ",
"          @fAAAb2  ,vAAAj%          ",
"           &lAAAV64MAAAx=           ",
"            :bAAACCAAAb:            ",
"             <mAAAAAAN2             ",
"              4VAAAAZ6              ",
"              4VAAAAZ6.             ",
"            .1BAAAAAAN2.            ",
"            >bAAACCAAAn:            ",
"           -cAAAV64MAAAc=           ",
"          $gAAAb2  ,vAAAj%          ",
"         odAAAx:    >xAAAdo         ",
"        .yAAAj;      *gAAAy.        ",
"        qAAAa$        $dAAAq        ",
"        7AAp+          orAA9        ",
"         9q.            Xq9         ",
"                                    ",
"                                    ",
"                                    ",
"                                    ",
"                                    ",
"                                    ",
"                                    ",
"                                    ",
"                                    ",
"                                    ",
"                                    ",
"                                    "
};
