/* XPM */
static char *close-prelight[] = {
/* columns rows colors chars-per-pixel */
"36 44 112 2",
"   c #0E7BC6",
".  c #0F7CC6",
"X  c #107CC6",
"o  c #117DC7",
"O  c #127DC7",
"+  c #137EC7",
"@  c #147EC7",
"#  c #157FC8",
"$  c #167FC8",
"%  c #1780C8",
"&  c #1881C8",
"*  c #1981C9",
"=  c #1A82C9",
"-  c #1B82C9",
";  c #1C83C9",
":  c #1D83CA",
">  c #1E84CA",
",  c #1F84CA",
"<  c #2185CA",
"1  c #2286CB",
"2  c #2386CB",
"3  c #2487CB",
"4  c #2587CB",
"5  c #2688CC",
"6  c #2788CC",
"7  c #298ACC",
"8  c #2A8BCD",
"9  c #2B8BCD",
"0  c #2C8CCD",
"q  c #2F8DCE",
"w  c #308ECE",
"e  c #338FCF",
"r  c #3490CF",
"t  c #3590CF",
"y  c #3691CF",
"u  c #3892D0",
"i  c #3992D0",
"p  c #3993D0",
"a  c #3B94D1",
"s  c #3C94D1",
"d  c #3F96D2",
"f  c #4096D2",
"g  c #4297D2",
"h  c #479AD3",
"j  c #489BD4",
"k  c #499BD4",
"l  c #4B9DD5",
"z  c #4C9DD5",
"x  c #52A0D6",
"c  c #54A1D7",
"v  c #5BA5D8",
"b  c #5CA6D9",
"n  c #5DA6D9",
"m  c #65ABDB",
"M  c #66ABDB",
"N  c #69ADDB",
"B  c #6AADDC",
"V  c #6BAEDC",
"C  c #6CAEDC",
"Z  c #75B4DF",
"A  c #77B4DF",
"S  c #78B5DF",
"D  c #79B5DF",
"F  c #7AB7DF",
"G  c #81BAE1",
"H  c #82BBE1",
"J  c #86BDE3",
"K  c #87BDE3",
"L  c #88BEE3",
"P  c #9AC7E7",
"I  c #9AC8E7",
"U  c #9CC9E8",
"Y  c #9DC9E8",
"T  c #A0CBE8",
"R  c #A1CBE9",
"E  c #A7CEEA",
"W  c #AAD0EA",
"Q  c #AED3EC",
"!  c #B0D4EC",
"~  c #B4D6ED",
"^  c #B6D7EE",
"/  c #B7D7EE",
"(  c #C4DEF1",
")  c #C6E0F1",
"_  c #C8E0F2",
"`  c #C9E1F2",
"'  c #C9E2F2",
"]  c #CAE2F3",
"[  c #CBE3F3",
"{  c #DAEBF6",
"}  c #DBEBF6",
"|  c #E4F0F9",
" . c #E5F0F9",
".. c #E6F2F9",
"X. c #E7F2F9",
"o. c #ECF4FB",
"O. c #EDF5FB",
"+. c #EEF5FB",
"@. c #EEF6FB",
"#. c #F0F7FC",
"$. c #F3F9FC",
"%. c #F4F9FD",
"&. c #F5FAFD",
"*. c #F8FBFD",
"=. c #F9FCFD",
"-. c #F9FCFE",
";. c #FAFCFE",
":. c #FAFDFE",
">. c #FBFDFE",
",. c #FCFEFE",
"<. c #FDFEFF",
"1. c gray100",
/* pixels */
"                                                                        ",
"                                                                        ",
"                                                                        ",
"                                                                        ",
"                                                                        ",
"                  .                                                     ",
"              . . . . . . . .               . . . . . . .               ",
"          . . X . O . O . . . .         . . . . O O O X X . .           ",
"        . X O O @ % % @ O O O . .   . . . O O O O % % O O O . .         ",
"      . . O O % & & & : & % % O . . . . O O % % & & : & % @ O X .       ",
"    . . O O & & 3 6 7 6 3 : & % O O O O % % : 3 6 6 6 : ; % O O . .     ",
"    . X O % : 3 7 r r r q 6 3 & % % % % & 3 7 w r u e q 3 : % O . .     ",
"    . . @ & < 0 u R ! j g u q 6 : & & 3 6 q u g j W E u 0 3 % O . .     ",
"    . O % & 6 r R 1.1.[ n z g e 0 6 6 7 e g z v ) 1.1.E e 6 & % O .     ",
"    . O % : 6 r Q 1.1.1.} V c h s r r s h x V } 1.1.1.Q r 6 : % O .     ",
"    . X @ & 6 r j ( 1.1.1.X.D n x l l x n A | 1.1.1.) l r 6 & % O .     ",
"    . . O % 3 q g v } 1.1.1.+.J C m m V L +.1.1.1.} v g e 3 % % . .     ",
"    . . O % : 6 u l V | 1.1.1.$.Y H H I $.1.1.1.| V l p 6 : % . . .     ",
"      . . % % 3 q s x Z +.1.1.1.-.^ ~ -.1.1.1.+.D x g q 3 % % . .       ",
"    . . . . % & 6 r h v J $.1.1.1.-.1.1.1.1.%.K n h e 6 & % . .         ",
"        . . O % : 0 p x V P %.1.1.1.1.1.1.-.Y V x s 7 3 % O . .         ",
"        . . O % : 6 r l m H / 1.1.1.1.1.1./ H M z r 6 & % O . .         ",
"        . . O % & 6 r z m H ! 1.1.1.1.1.1./ H M l r 6 & % O . .         ",
"        . X O & : 0 s c V P -.1.1.1.1.1.1.&.Y C x s 0 : % O . .         ",
"        . O @ & 6 e h n L %.1.1.1.1.1.1.1.1.%.L n j e 6 & % O .         ",
"      . . @ & 3 q g x D +.1.1.1.-.^ ! -.1.1.1.@.F c g q 3 & O . .       ",
"    . . O @ > 7 u z N | 1.1.1.%.Y H H P $.1.1.1.X.V z u 7 > % O . .     ",
"    . . O % 3 e g v } 1.1.1.+.J V m m V L +.1.1.1.} n g q 3 & O . .     ",
"    . O O : 6 r j [ 1.1.1.| D v x l l x n A | 1.1.1.[ j r 6 & @ . . .   ",
"  . . O % & 6 r Q 1.1.1.} N c l p y y s h x V } 1.1.1.Q r 7 : % O .     ",
"    . O % & 6 e P 1.1.[ n z s r 0 6 6 0 e g z n ( 1.1.R e 5 & @ O .     ",
"    . . O % 3 0 r R Q l g p q 6 : : & : 6 q u g j Q R u 7 3 & @ . .     ",
"    . . O % ; 3 0 e r r e 7 3 & % @ % % : 3 6 w r r e q 3 : @ O . . . . ",
"    . . O O % ; 3 3 7 6 3 : : @ O O O O O % > 3 6 6 3 3 > % O O . .     ",
"      . . O O @ % & & & % @ O O . . . . O O % & : & & % @ @ O . .       ",
"        . O O O O % % @ O O O . .     . . O O O O # # % O O . .         ",
"          . . . . . O O O . . .         . . O . O O . . . . .           ",
"              . . . . . . .   .             . . . . . . . .             ",
"                .                               .                       ",
"                                                .                       ",
"                                                                        ",
"                                                                        ",
"                                                                        ",
"                                                                        "
};
