/* XPM */
static char *hide-pressed[] = {
/* columns rows colors chars-per-pixel */
"36 44 121 2",
"   c #0E7BC6",
".  c #0F7CC6",
"X  c #107CC6",
"o  c #117DC7",
"O  c #127DC7",
"+  c #137EC7",
"@  c #147EC7",
"#  c #157FC8",
"$  c #167FC8",
"%  c #1780C8",
"&  c #1881C8",
"*  c #1981C9",
"=  c #1A82C9",
"-  c #1B82C9",
";  c #1C83C9",
":  c #1D83CA",
">  c #1E84CA",
",  c #1F84CA",
"<  c #2085CA",
"1  c #2185CA",
"2  c #2286CB",
"3  c #2386CB",
"4  c #2487CB",
"5  c #2587CB",
"6  c #2688CC",
"7  c #2788CC",
"8  c #2889CC",
"9  c #298ACC",
"0  c #2A8BCD",
"q  c #2B8BCD",
"w  c #2C8CCD",
"e  c #2D8CCD",
"r  c #2E8DCE",
"t  c #2F8DCE",
"y  c #308ECE",
"u  c #318ECE",
"i  c #328FCE",
"p  c #338FCF",
"a  c #3490CF",
"s  c #3590CF",
"d  c #3992D0",
"f  c #3993D0",
"g  c #3A93D1",
"h  c #3B94D1",
"j  c #3D95D1",
"k  c #3E95D1",
"l  c #3F96D2",
"z  c #4096D2",
"x  c #4297D2",
"c  c #4398D3",
"v  c #4599D3",
"b  c #4699D3",
"n  c #479AD3",
"m  c #489BD4",
"M  c #499BD4",
"N  c #4A9CD4",
"B  c #4B9DD5",
"V  c #4C9DD5",
"C  c #509FD6",
"Z  c #51A0D6",
"A  c #55A2D6",
"S  c #55A2D7",
"D  c #56A2D7",
"F  c #58A3D7",
"G  c #5BA5D8",
"H  c #5CA6D9",
"J  c #5FA8D9",
"K  c #60A8D9",
"L  c #61A9DA",
"P  c #62A9DA",
"I  c #63AADA",
"U  c #64AADA",
"Y  c #65ABDB",
"T  c #67ACDB",
"R  c #68ACDB",
"E  c #69ADDB",
"W  c #68ACDC",
"Q  c #6CAEDD",
"!  c #77B5DF",
"~  c #7CB7E0",
"^  c #84BCE2",
"/  c #85BDE3",
"(  c #86BDE3",
")  c #87BDE3",
"_  c #88BEE3",
"`  c #8FC1E5",
"'  c #8FC2E4",
"]  c #90C3E5",
"[  c #91C2E5",
"{  c #91C3E5",
"}  c #93C4E5",
"|  c #94C5E6",
" . c #97C6E7",
".. c #98C7E7",
"X. c #9AC7E7",
"o. c #9BC8E7",
"O. c #9DC9E8",
"+. c #9ECAE8",
"@. c #A0CBE9",
"#. c #A2CCE9",
"$. c #A3CCE9",
"%. c #A4CDE9",
"&. c #A5CDE9",
"*. c #A5CEEA",
"=. c #A6CEEA",
"-. c #A6CFEA",
";. c #A7CFEA",
":. c #A7D0EB",
">. c #A8D0EB",
",. c #A9D0EB",
"<. c #AAD0EB",
"1. c #AAD1EB",
"2. c #ACD2EB",
"3. c #AED2EC",
"4. c #AED3EC",
"5. c #AFD3EC",
"6. c #B0D4ED",
"7. c #B1D4ED",
"8. c #B2D5ED",
"9. c #B3D5ED",
"0. c #B3D6ED",
/* pixels */
"                                                                        ",
"                                                                        ",
"                                                                        ",
"                                                                        ",
"                                                                        ",
"                                                                        ",
"                                                                        ",
"                                                                        ",
"                                                                        ",
"                                                                        ",
"                                                                        ",
"                                                                        ",
"                                                                        ",
"                                                                        ",
"                                                                        ",
"                                                                        ",
"                                                                        ",
"                                                                        ",
"                                                                        ",
"                                              .                         ",
"                      O     X   . . . . . . . . .                       ",
"            . . X X O   o o o o O O O O O O o . O O . . .               ",
"          . . O O O O + # # # $ % % % % % % # % O O o o . . .           ",
"        . . O O # # - - , , 1 1 1 1 1 1 , , , - - - % % o o . .         ",
"      . . O # - - 1 5 0 0 e e y y a a y y e e 0 7 3 1 - % o o O .       ",
"    . . O # - , 0 e p g k x x N m m m m n v x k f a e 7 , - % O . .     ",
"    . O O & , 8 p x N C F H K Y Y Y T P P J G A Z m k a 7 , % O O .     ",
"    . O & - 8 a v G Q ~ _ ] X.@.*.*.*.*.+.o.' ^ ! T A c a 7 , % O .     ",
"    . O & , 0 f ) ] +.@.,.2.2.5.7.0.0.0.7.5.2.,.#.o.{ ^ f 0 , % O . .   ",
"    O O + 1 e k _ } +.*.,.5.7.7.0.0.0.0.7.7.5.,.*.+.} ) k 0 1 % O O     ",
"    O O % , 0 f ^ ' ..O.*.*.<.<.<.<.<.<.,.*.*.*.+.} ] ^ f 0 , % O .     ",
"    . O # - 8 y x m A H P Y R R E E E R W T P P H D m k y 3 - % . .     ",
"      . O & , 8 e f x v n m V V V V V V V m m m v c g e 7 , % + . . .   ",
"      O O O & , 1 9 e y a y a a a a a a a a a a e e 0 3 - - O O O .     ",
"      . . O O & - - , 1 1 1 1 8 3 3 3 1 7 3 3 , , , - - % O O . .       ",
"          O O O O & & + % % % % % % % % % % % % % % % O O O . .         ",
"          . . . . O O O O O O O O O O O O O O O O O . . O . .           ",
"              . . . . . . . . . . . . . . . . . . . . . .               ",
"                                                                        ",
"                                                                        ",
"                                                                        ",
"                                                                        ",
"                                                                        ",
"                                                                        "
};
