/* XPM */
static char *hide-inactive[] = {
/* columns rows colors chars-per-pixel */
"36 44 21 1",
"  c #536B7B",
". c #597080",
"X c #5C7382",
"o c #667B89",
"O c #718592",
"+ c #798B98",
"@ c #8697A2",
"# c #909FAA",
"$ c #99A7B1",
"% c #A7B3BB",
"& c #ADB8C0",
"* c #BDC6CC",
"= c #C0C9CF",
"- c #D2D9DD",
"; c #D6DCDF",
": c #E5E9EB",
"> c #E7EAEC",
", c #F1F3F4",
"< c #F2F3F5",
"1 c #FAFBFB",
"2 c gray100",
/* pixels */
"                                    ",
"                                    ",
"                                    ",
"                                    ",
"                                    ",
"                                    ",
"                                    ",
"                                    ",
"                                    ",
"                                    ",
"                                    ",
"                                    ",
"                                    ",
"                                    ",
"                                    ",
"                                    ",
"                                    ",
"                                    ",
"                                    ",
"                                    ",
"                                    ",
"                                    ",
"                                    ",
"                                    ",
"                                    ",
"                                    ",
"                                    ",
"        XO@$&=;>,11,:-*%#+o.        ",
"        22222222222222222222        ",
"        22222222222222222222        ",
"        22222222222222222222        ",
"                                    ",
"                                    ",
"                                    ",
"                                    ",
"                                    ",
"                                    ",
"                                    ",
"                                    ",
"                                    ",
"                                    ",
"                                    ",
"                                    ",
"                                    "
};
