/* XPM */
static char *hide-active[] = {
/* columns rows colors chars-per-pixel */
"36 44 21 1",
"  c #0E7BC6",
". c #1780C8",
"X c #1B82C9",
"o c #2889CC",
"O c #3892D0",
"+ c #4398D3",
"@ c #55A2D7",
"# c #63AADA",
"$ c #70B1DD",
"% c #83BBE2",
"& c #8CC0E4",
"* c #A2CCE9",
"= c #A7CFEA",
"- c #C1DDF0",
"; c #C5DFF1",
": c #DBEBF7",
"> c #DDECF7",
", c #EBF4FA",
"< c #ECF5FB",
"1 c #F8FBFD",
"2 c gray100",
/* pixels */
"                                    ",
"                                    ",
"                                    ",
"                                    ",
"                                    ",
"                                    ",
"                                    ",
"                                    ",
"                                    ",
"                                    ",
"                                    ",
"                                    ",
"                                    ",
"                                    ",
"                                    ",
"                                    ",
"                                    ",
"                                    ",
"                                    ",
"                                    ",
"                                    ",
"                                    ",
"                                    ",
"                                    ",
"                                    ",
"                                    ",
"                                    ",
"        XO@$&=;><11,:-*%#+o.        ",
"        22222222222222222222        ",
"        22222222222222222222        ",
"        22222222222222222222        ",
"                                    ",
"                                    ",
"                                    ",
"                                    ",
"                                    ",
"                                    ",
"                                    ",
"                                    ",
"                                    ",
"                                    ",
"                                    ",
"                                    ",
"                                    "
};
