/* XPM */
static char *maximize-prelight[] = {
/* columns rows colors chars-per-pixel */
"36 44 74 1",
"  c #0E7BC6",
". c #0F7CC6",
"X c #107CC6",
"o c #117DC7",
"O c #127DC7",
"+ c #147EC7",
"@ c #157FC8",
"# c #167FC8",
"$ c #1780C8",
"% c #1981C9",
"& c #1A82C9",
"* c #1D83CA",
"= c #1F84CA",
"- c #2185CA",
"; c #2286CB",
": c #2487CB",
"> c #2587CB",
", c #298ACC",
"< c #2A8BCD",
"1 c #2E8DCE",
"2 c #2F8DCE",
"3 c #318ECE",
"4 c #328FCE",
"5 c #338FCF",
"6 c #3490CF",
"7 c #3992D0",
"8 c #3993D0",
"9 c #3C94D1",
"0 c #3D95D1",
"q c #3E95D1",
"w c #4197D2",
"e c #4398D3",
"r c #4499D3",
"t c #479AD3",
"y c #489BD4",
"u c #499BD4",
"i c #4A9CD4",
"p c #4E9ED5",
"a c #53A1D6",
"s c #54A1D7",
"d c #58A3D7",
"f c #59A4D8",
"g c #5CA6D9",
"h c #5DA6D9",
"j c #60A8D9",
"k c #61A9DA",
"l c #62A9DA",
"z c #63AADA",
"x c #64AADA",
"c c #65ABDB",
"v c #69ADDB",
"b c #6BAEDC",
"n c #6DAFDC",
"m c #70B1DD",
"M c #71B1DD",
"N c #71B1DE",
"B c #7BB7E0",
"V c #7CB7E0",
"C c #81BAE1",
"Z c #82BBE2",
"A c #83BBE2",
"S c #88BEE3",
"D c #9AC8E7",
"F c #9BC8E8",
"G c #9BC9E8",
"H c #9DCAE8",
"J c #B9D9EE",
"K c #BAD9EF",
"L c #BBD9EF",
"P c #D8E9F6",
"I c #D8EAF6",
"U c #D9EAF6",
"Y c #F3F9FC",
"T c gray100",
/* pixels */
"                                    ",
"                                    ",
"                                    ",
"                                    ",
"                  ....              ",
"                  ..                ",
"         o o.... o.X.X X o X        ",
"      ..Xooooooooooo XX+ooXXX       ",
"     XXooo@@+&+&+&+&$+$++++ooo.     ",
"    XXo+#==-;;;;;;;;>;>;==&+++o.    ",
"   .Xo@&;>,15455554445551<>=&+oo.   ",
"   .oo&;,59euuuuuuipuuiee951;$+o.   ",
"   oo+=,7eahzcccczzzccczhae9,;+o.   ",
"   o+&>5yTTTTTTTTTTTTTTTTTTe5>=+..  ",
"  .o+=,9aTTTTTTTTTTTTTTTTTTa9,=o.   ",
"  .o&=1whTTTTTTTTTTTTTTTTTThw1;++   ",
" ...+=5tzTTTYIJDCNNADJIYTTThe5;+o+  ",
" ..++;4uzTTTSBnzsaadznNDTTTzi4;$o.  ",
"  .+&:4uzTTTVbduw99widNNTTTzi4;$o.  ",
"  .++:4uzTTTNhi85,,59ihNTTThi4;$o.  ",
"  ..&:4uhTTTba91;==>19abTTTzy5;+.   ",
"  .++:4yzTTTcp9>=&&=,7pcTTTjy5;$+   ",
"  .++:4thTTTcp7,=&&=,7pcTTThi4;$+   ",
"  ..+;4uzTTTba91;==;19abTTTzi4;$+   ",
"  .+@;5tzTTTnhu71,<19igMTTTze5;+o+  ",
"   +$;5yzTTTBbduw00widbMTTTzi5>+o.  ",
"  ..+;5uzTTTSBnzsaadhnNDTTTzi4:+o.  ",
"  .+&=3tzTTTYILHAMMCDJPYTTTze4;$o.  ",
"  .++=3ehTTTTTTTTTTTTTTTTTTge1;+..  ",
"  ..+=<9aTTTTTTTTTTTTTTTTTTa9<=++.  ",
"  ..@*:5yTTTTTTTTTTTTTTTTTTy5>&+..  ",
"  ..++=<7eahzcczzzzzccccgae9<;+o.   ",
"   ..+%;<69eyyyyypyypuuut06<;$++    ",
"   . +$$=:<35566555555553::=%o+ .   ",
"    ..++$%*=;;;;;;;;;;;;=**+++..    ",
"     ...++@@+$$$$$@@+%+%+@@++..     ",
"      ....+.++++ooo+oo.++.....      ",
"        ......  ..+ ........        ",
"                        .           ",
"                        ..          ",
"                                    ",
"                                    ",
"                                    ",
"                                    "
};
