/* XPM */
static char *maximize-toggled-inactive[] = {
/* columns rows colors chars-per-pixel */
"36 44 19 1",
"  c #536B7B",
". c #667B89",
"X c #8C9CA6",
"o c #8C9CA7",
"O c #8D9DA8",
"+ c #AFBBC2",
"@ c #B0BBC2",
"# c #B1BCC3",
"$ c #CED5D9",
"% c #CFD6DA",
"& c #D0D6DB",
"* c #D0D7DB",
"= c #E7EAEC",
"- c #E8EBED",
"; c #E9ECEE",
": c #F7F8F9",
"> c #F8F9F9",
", c #F9FAFA",
"< c gray100",
/* pixels */
"                                    ",
"                                    ",
"                                    ",
"                                    ",
"                                    ",
"                                    ",
"                                    ",
"                                    ",
"                                    ",
"                                    ",
"                                    ",
"                                    ",
"                                    ",
"                                    ",
"                                    ",
"                                    ",
"            .o@*->>-%@o.            ",
"            <<<<<<<<<<<<            ",
"            <<<<<<<<<<<<            ",
"            <<<<<<<<<<<<            ",
"            <<<<<<<<<<<<            ",
"            <<<<<<<<<<<<            ",
"            <<<<<<<<<<<<            ",
"            <<<<<<<<<<<<            ",
"            <<<<<<<<<<<<            ",
"            <<<<<<<<<<<<            ",
"            <<<<<<<<<<<<            ",
"            .o+%=:>;*#O.            ",
"                                    ",
"                                    ",
"                                    ",
"                                    ",
"                                    ",
"                                    ",
"                                    ",
"                                    ",
"                                    ",
"                                    ",
"                                    ",
"                                    ",
"                                    ",
"                                    ",
"                                    ",
"                                    "
};
