/* XPM */
static char *maximize-pressed[] = {
/* columns rows colors chars-per-pixel */
"36 44 94 2",
"   c #0E7BC6",
".  c #0F7CC6",
"X  c #107CC6",
"o  c #117DC7",
"O  c #127DC7",
"+  c #147EC7",
"@  c #157FC8",
"#  c #167FC8",
"$  c #1780C8",
"%  c #1981C9",
"&  c #1A82C9",
"*  c #1D83CA",
"=  c #1F84CA",
"-  c #2185CA",
";  c #2286CB",
":  c #2487CB",
">  c #2587CB",
",  c #298ACC",
"<  c #2A8BCD",
"1  c #2E8DCE",
"2  c #2F8DCE",
"3  c #318ECE",
"4  c #328FCE",
"5  c #338FCF",
"6  c #3490CF",
"7  c #3992D0",
"8  c #3993D0",
"9  c #3C94D1",
"0  c #3D95D1",
"q  c #3E95D1",
"w  c #4197D2",
"e  c #4398D3",
"r  c #4499D3",
"t  c #479AD3",
"y  c #489BD4",
"u  c #499BD4",
"i  c #4A9CD4",
"p  c #4E9ED5",
"a  c #53A1D6",
"s  c #54A1D7",
"d  c #58A3D7",
"f  c #59A4D8",
"g  c #5CA6D9",
"h  c #5DA6D9",
"j  c #60A8D9",
"k  c #61A9DA",
"l  c #62A9DA",
"z  c #63AADA",
"x  c #64AADA",
"c  c #65ABDB",
"v  c #69ADDB",
"b  c #6BAEDC",
"n  c #6DAFDC",
"m  c #6DAFDD",
"M  c #70B1DD",
"N  c #74B3DE",
"B  c #75B4DF",
"V  c #7BB7E0",
"C  c #7CB7E0",
"Z  c #81BAE1",
"A  c #82BBE2",
"S  c #88BEE3",
"D  c #8FC1E5",
"F  c #91C3E5",
"G  c #92C3E5",
"H  c #9AC7E7",
"J  c #9BC8E7",
"K  c #A0CBE9",
"L  c #A1CBE9",
"P  c #A2CCE9",
"I  c #A3CCE9",
"U  c #A3CDE9",
"Y  c #A4CDE9",
"T  c #A5CDE9",
"R  c #A5CEEA",
"E  c #A6CEEA",
"W  c #A7CFEA",
"Q  c #A7D0EB",
"!  c #A9D0EB",
"~  c #AAD1EB",
"^  c #ABD1EB",
"/  c #ACD2EB",
"(  c #ADD2EB",
")  c #AFD3EC",
"_  c #B0D4EC",
"`  c #B0D4ED",
"'  c #B1D4EC",
"]  c #B2D4ED",
"[  c #B2D5ED",
"{  c #B3D5ED",
"}  c #B4D6ED",
"|  c #B6D7EE",
" . c #B6D8EE",
".. c #B8D8EE",
/* pixels */
"                                                                        ",
"                                                                        ",
"                                                                        ",
"                                                                        ",
"                                    . . . .                             ",
"                                    . .                                 ",
"                  o   o o   X     o . X . X   X   o   X                 ",
"            . . X o o o o o + o o o o o   X X + o o X X X               ",
"          X X o o o @ @ + @ & + + % % + % # % + + + + o o o .           ",
"        X X o + # = = - ; ; ; ; ; ; ; ; ; ; ; ; = = & $ + o o .         ",
"      . X o @ & ; > , 1 5 5 5 5 5 5 5 5 5 5 5 5 1 < > = % + o X .       ",
"      . o o & ; , 5 9 e u i u u i i i i i i i e e 9 5 1 ; % + o         ",
"      o o + = , 7 e s h z c z z x j z z c c c z h s e 9 , ; + o X       ",
"      o + & > 5 t G J P W W W W Y Y I Y W W W W I J G e 5 > & + X o     ",
"    . o + = , 9 s H W _ _ _ _ ^ ! ! ! ! ^ ' ' | ' W J a 9 , = + o       ",
"    . o & = 1 w h L ) | ..| _ ) Q W W ! ^ ^ | ....^ L h w 1 ; $ o X     ",
". . X o $ - 6 e h W '  .' W G Z N n n N Z G Y } ..' W h e 5 ; + o X     ",
". . X o $ ; 6 i z W ' } S B n z s s s d j n B S | ' W z i 6 ; $ o X     ",
".   . o $ ; 5 e z W ^ ^ B n d i w 0 9 e i d M B ^ ^ Y z i 3 ; $ o X     ",
"    . o $ ; 6 i z I ! ! N h e 9 1 < < 1 9 i h M W ! I z t 6 ; $ o X     ",
"    .   $ ; 5 i h P ! P v a 9 1 > = = > 1 0 s v I Q I j i 6 ; $ o X     ",
"      o $ ; 1 t z J W P c p 9 , = % % = , 9 i c I P I j e 5 ; $ o X     ",
"    X o $ ; 5 i z J W P c p 9 , = % % = , 9 i c I Q I h e 6 ; $ o X     ",
"    X o $ ; 5 t z L W P v a 9 1 > = = ; 1 0 a v I Y I j i 6 ; $ o X     ",
"      o % ; 5 t z L W ! N g t 9 1 , , 5 7 i z N Q ! I z t 6 = $ o X     ",
"    X + + > 5 i z L ^ ^ B v d i w 9 9 w i d v B / / I z i 6 ; $ o X     ",
"    X o $ > 3 i z W ' } S B n z d s s d z n B S ' ' Q z e 6 ; $ o o     ",
"      o $ - 3 e z W _  .| W G A N n N B B G W '  .' Y z t 6 = $ o       ",
". . . o $ = 1 e h L ^  ...| _ ^ ! W W Q ^ ' | .. .^ I h e 1 = $ o X     ",
". . . o + = , 8 s J ! ' | _ _ ! ! ! ! ! ^ ' ' _ ' W J s 0 , & $ o       ",
"    . X + % > 5 e G H L W W W W P L P W Y W W W I J G e 5 > % + X X     ",
"    . o o $ ; < 9 e s h z c c z z z z z z c c z h s t 8 < = $ o X       ",
"      . o + % ; , 5 9 e i i i i i i i i i i i t e 0 5 < > # + o X       ",
"      . X o + % ; > , 1 5 5 5 5 5 5 5 5 5 5 5 3 1 < > ; # + + X X       ",
"        X X o o + % = ; ; ; ; ; ; ; ; > ; ; ; ; ; & % $ + X . .         ",
"          X X   + + + + + $ $ $ % % + # + % $ $ + $ + o   . .           ",
"            . . X X o o o o o o o o o o o o X   o o . . . .             ",
"                . . o   o . X o X X X X X   X . . o . . . .             ",
"                . .                             . .                     ",
"                . .                             . .                     ",
"                                                                        ",
"                                                                        ",
"                                                                        ",
"                                                                        "
};
