/* XPM */
static char *maximize-toggled-prelight[] = {
/* columns rows colors chars-per-pixel */
"36 44 69 1",
"  c #0E7BC6",
". c #0F7CC6",
"X c #107CC6",
"o c #117DC7",
"O c #127DC7",
"+ c #137EC7",
"@ c #147EC7",
"# c #157FC8",
"$ c #167FC8",
"% c #1780C8",
"& c #1981C9",
"* c #1A82C9",
"= c #1B82C9",
"- c #1C83C9",
"; c #1E84CA",
": c #1F84CA",
"> c #2085CA",
", c #2185CA",
"< c #2286CB",
"1 c #2487CB",
"2 c #2587CB",
"3 c #2788CC",
"4 c #2889CC",
"5 c #298ACC",
"6 c #2C8CCD",
"7 c #2E8DCE",
"8 c #2F8DCE",
"9 c #308ECE",
"0 c #318ECE",
"q c #338FCF",
"w c #3490CF",
"e c #3590CF",
"r c #3892D0",
"t c #3992D0",
"y c #3D95D1",
"u c #3E95D1",
"i c #3F96D2",
"p c #4197D2",
"a c #4398D3",
"s c #489BD4",
"d c #4A9CD4",
"f c #4B9DD5",
"g c #4C9DD5",
"h c #4E9ED5",
"j c #58A3D7",
"k c #5CA6D9",
"l c #60A8D9",
"z c #61A9DA",
"x c #65AADA",
"c c #66ABDB",
"v c #67ACDB",
"b c #6AADDC",
"n c #6DAFDC",
"m c #6FB0DD",
"M c #97C6E7",
"N c #99C7E7",
"B c #99C8E7",
"V c #BFDCF0",
"C c #C0DCF0",
"Z c #C0DDF0",
"A c #DBEBF7",
"S c #DCECF7",
"D c #DDECF7",
"F c #EEF6FB",
"G c #EFF6FB",
"H c #F0F7FC",
"J c #FAFCFE",
"K c #FBFDFE",
"L c gray100",
/* pixels */
"                                    ",
"                                    ",
"                                    ",
"                                    ",
"                                    ",
"                                    ",
"                                    ",
"                                    ",
"                   .                ",
"              o . oo...             ",
"          ..XXooooooooo .           ",
"          ooo@@$@@@@@@@@oo.         ",
"        .oo@***-,,,;;**$@@o         ",
"        oo@*-2560006642-*@oo.       ",
"      .oo@-26quaaggspuq62-@@o.      ",
"      .o@-20ugjzbbbvzjgu02*@o.      ",
"       +$,6pxBZSGJJGSCNxu6,%oo      ",
"      o+-5tgLLLLLLLLLLLLgt3;@o.     ",
"     .++-6pkLLLLLLLLLLLLku6;@o.     ",
"     .+$<0sxLLLLLLLLLLLLbg6,@o.     ",
"     .+$,0gmLLLLLLLLLLLLbgq,*oo.    ",
"     .+$<qgmLLLLLLLLLLLLmjq,@o.     ",
"     .+%2qgmLLLLLLLLLLLLmgq2$o.     ",
"      +%,qgmLLLLLLLLLLLLmgq,$o.     ",
"     .+$,0sxLLLLLLLLLLLLva0,@o..    ",
"     .+$;6pkLLLLLLLLLLLLkp6;%o..    ",
"     . +*3tgLLLLLLLLLLLLht4;o..     ",
"       +*,6uxMVAFJLHSZBxp6,@@.      ",
"      .+$-20ugjzxbbvzjgu02-@o.      ",
"      . o$*26qupsggsauq62-@oo.      ",
"       .oo$*;2566066652-*@oo.       ",
"         Xo$$**;,,,,--**@oo.        ",
"         .oooo@$@@*@$@oooo..        ",
"          .. oooooooooo.o ..        ",
"               o.... o    ..        ",
"                                    ",
"                                    ",
"                                    ",
"                                    ",
"                                    ",
"                                    ",
"                                    ",
"                                    ",
"                                    "
};
