/* XPM */
static char *maximize-toggled-active[] = {
/* columns rows colors chars-per-pixel */
"36 44 19 1",
"  c #0E7BC6",
". c #2889CC",
"X c #5DA6D9",
"o c #5EA7D9",
"O c #5FA8D9",
"+ c #8FC2E5",
"@ c #90C2E5",
"# c #91C3E5",
"$ c #BAD9EF",
"% c #BCDAEF",
"& c #BDDBEF",
"* c #BEDBF0",
"= c #DDECF7",
"- c #DFEDF7",
"; c #E0EEF8",
": c #F4F9FC",
"> c #F5F9FD",
", c #F6FAFD",
"< c gray100",
/* pixels */
"                                    ",
"                                    ",
"                                    ",
"                                    ",
"                                    ",
"                                    ",
"                                    ",
"                                    ",
"                                    ",
"                                    ",
"                                    ",
"                                    ",
"                                    ",
"                                    ",
"                                    ",
"                                    ",
"            .O+%->>-%@o.            ",
"            <<<<<<<<<<<<            ",
"            <<<<<<<<<<<<            ",
"            <<<<<<<<<<<<            ",
"            <<<<<<<<<<<<            ",
"            <<<<<<<<<<<<            ",
"            <<<<<<<<<<<<            ",
"            <<<<<<<<<<<<            ",
"            <<<<<<<<<<<<            ",
"            <<<<<<<<<<<<            ",
"            <<<<<<<<<<<<            ",
"            .X+$->>;*@O.            ",
"                                    ",
"                                    ",
"                                    ",
"                                    ",
"                                    ",
"                                    ",
"                                    ",
"                                    ",
"                                    ",
"                                    ",
"                                    ",
"                                    ",
"                                    ",
"                                    ",
"                                    ",
"                                    "
};
