/* XPM */
static char *maximize-active[] = {
/* columns rows colors chars-per-pixel */
"36 44 19 1",
"  c #0E7BC6",
". c #1780C8",
"X c #1881C8",
"o c #1981C9",
"O c #2D8CCD",
"+ c #2E8DCE",
"@ c #308ECE",
"# c #4F9FD5",
"$ c #509FD6",
"% c #51A0D6",
"& c #53A1D6",
"* c #7CB7E0",
"= c #7DB8E0",
"- c #7EB8E0",
"; c #AED2EC",
": c #AFD3EC",
"> c #B0D4EC",
", c #E5F1F9",
"< c gray100",
/* pixels */
"                                    ",
"                                    ",
"                                    ",
"                                    ",
"                                    ",
"                                    ",
"                                    ",
"                                    ",
"                                    ",
"                                    ",
"                                    ",
"                                    ",
"                                    ",
"         <<<<<<<<<<<<<<<<<<         ",
"         <<<<<<<<<<<<<<<<<<         ",
"         <<<<<<<<<<<<<<<<<<         ",
"         <<<,:=%+XX+%=:,<<<         ",
"         <<<            <<<         ",
"         <<<            <<<         ",
"         <<<            <<<         ",
"         <<<            <<<         ",
"         <<<            <<<         ",
"         <<<            <<<         ",
"         <<<            <<<         ",
"         <<<            <<<         ",
"         <<<            <<<         ",
"         <<<            <<<         ",
"         <<<,>=%@o +#*:,<<<         ",
"         <<<<<<<<<<<<<<<<<<         ",
"         <<<<<<<<<<<<<<<<<<         ",
"         <<<<<<<<<<<<<<<<<<         ",
"                                    ",
"                                    ",
"                                    ",
"                                    ",
"                                    ",
"                                    ",
"                                    ",
"                                    ",
"                                    ",
"                                    ",
"                                    ",
"                                    ",
"                                    "
};
