/* XPM */
static char *maximize-inactive[] = {
/* columns rows colors chars-per-pixel */
"36 44 19 1",
"  c #536B7B",
". c #597080",
"X c #5A7181",
"o c #5B7281",
"O c #697E8C",
"+ c #6A7F8D",
"@ c #6B808E",
"# c #82939F",
"$ c #82949F",
"% c #8394A0",
"& c #8495A1",
"* c #A1AEB7",
"= c #A2AFB8",
"- c #A3AFB8",
"; c #C5CDD2",
": c #C6CED3",
"> c #C6CED4",
", c #ECEFF1",
"< c gray100",
/* pixels */
"                                    ",
"                                    ",
"                                    ",
"                                    ",
"                                    ",
"                                    ",
"                                    ",
"                                    ",
"                                    ",
"                                    ",
"                                    ",
"                                    ",
"                                    ",
"         <<<<<<<<<<<<<<<<<<         ",
"         <<<<<<<<<<<<<<<<<<         ",
"         <<<<<<<<<<<<<<<<<<         ",
"         <<<,:=$+XX+%=:,<<<         ",
"         <<<            <<<         ",
"         <<<            <<<         ",
"         <<<            <<<         ",
"         <<<            <<<         ",
"         <<<            <<<         ",
"         <<<            <<<         ",
"         <<<            <<<         ",
"         <<<            <<<         ",
"         <<<            <<<         ",
"         <<<            <<<         ",
"         <<<,>=&@o +#*:,<<<         ",
"         <<<<<<<<<<<<<<<<<<         ",
"         <<<<<<<<<<<<<<<<<<         ",
"         <<<<<<<<<<<<<<<<<<         ",
"                                    ",
"                                    ",
"                                    ",
"                                    ",
"                                    ",
"                                    ",
"                                    ",
"                                    ",
"                                    ",
"                                    ",
"                                    ",
"                                    ",
"                                    "
};
