/* XPM */
static char *maximize-toggled-pressed[] = {
/* columns rows colors chars-per-pixel */
"36 44 92 1",
"  c #0E7BC6",
". c #0F7CC6",
"X c #107CC6",
"o c #117DC7",
"O c #127DC7",
"+ c #137EC7",
"@ c #147EC7",
"# c #157FC8",
"$ c #167FC8",
"% c #1780C8",
"& c #1981C9",
"* c #1A82C9",
"= c #1B82C9",
"- c #1C83C9",
"; c #1E84CA",
": c #1F84CA",
"> c #2085CA",
", c #2185CA",
"< c #2286CB",
"1 c #2487CB",
"2 c #2587CB",
"3 c #2788CC",
"4 c #2889CC",
"5 c #298ACC",
"6 c #2C8CCD",
"7 c #2E8DCE",
"8 c #2F8DCE",
"9 c #308ECE",
"0 c #318ECE",
"q c #338FCF",
"w c #3490CF",
"e c #3590CF",
"r c #3892D0",
"t c #3992D0",
"y c #3D95D1",
"u c #3E95D1",
"i c #3F96D2",
"p c #4197D2",
"a c #4398D3",
"s c #489BD4",
"d c #4A9CD4",
"f c #4B9DD5",
"g c #4C9DD5",
"h c #4E9ED5",
"j c #58A3D7",
"k c #5CA6D9",
"l c #60A8D9",
"z c #61A9DA",
"x c #66ABDB",
"c c #67ACDB",
"v c #6AADDC",
"b c #6DAFDC",
"n c #6FB0DD",
"m c #75B4DF",
"M c #76B4DF",
"N c #77B4DF",
"B c #8EC1E5",
"V c #98C7E7",
"C c #9ECAE8",
"Z c #9FCBE8",
"A c #A4CDE9",
"S c #A5CDE9",
"D c #A8D0EB",
"F c #AAD1EB",
"G c #ABD1EB",
"H c #AED2EC",
"J c #B1D4EC",
"K c #B3D6ED",
"L c #B6D7EE",
"P c #B7D8EE",
"I c #C0DCF0",
"U c #C3DEF1",
"Y c #C7E0F1",
"T c #C7E0F2",
"R c #C9E2F2",
"E c #CAE2F2",
"W c #CDE4F3",
"Q c #D3E7F5",
"! c #D4E7F5",
"~ c #DAEBF6",
"^ c #DCECF7",
"/ c #DDEDF7",
"( c #DFEDF8",
") c #E0EEF8",
"_ c #E7F2FA",
"` c #E8F2FA",
"' c #EBF3FA",
"] c #ECF4FA",
"[ c #EFF7FC",
"{ c #F0F7FC",
"} c #F3F9FC",
"| c #F8FBFD",
/* pixels */
"                                    ",
"                                    ",
"                                    ",
"                                    ",
"                                    ",
"                                    ",
"                                    ",
"                                    ",
"                   .                ",
"              o . oo...             ",
"          ..XXooooooooo .           ",
"          ooo@@$@@@@@@@@oo.         ",
"        .oo@***-,,,;;**$@@o         ",
"        oo@*-2560006642-*@oo.       ",
"      .oo@-26quaaggspuq62-@@o.      ",
"      .o@-20ugjzvvvczjgu02*@o.      ",
"      oo%<6ijNBCGKJGCBmju6,%+..     ",
"      o@*5thVSPUYYYYUPSVht3-$..     ",
"     .o$;6pkAPTQ~///QTPAki6;$..     ",
"     .o$,0acHT!(_''_(QUHcg6<$+.     ",
"     .o%,qgnKY/'{{}{'~YPngq,%+      ",
"     .o%<qgnLW(]}||}])WPngq<%+      ",
"    ..o%,qgmPW(]}||}])WPngq<$+.     ",
"    .oo%,qgvLY/`{}}{'~RKngq,$+.     ",
"     .o@,0avHU!(_]]`)!UHcs0,%+.     ",
"     .o@;6pkAPUQ~///!UPAjp6;$..     ",
"     .o@*3tgVDPUUUUYULDVht5*+..     ",
"      o@*,6ujmBCHLJDABNjp6<%+.      ",
"      .o$-20ugjzcvvczjgu01*$+.      ",
"       o@@*26qupsggaaue6<*$+ .      ",
"       .oo$*;2566000651-*$+ .       ",
"         oo@$**;,,,;--*$$++.        ",
"         .oooo@@@@$$@@oooXX.        ",
"          .. oooooooooX.XX          ",
"             .XX....oo              ",
"                    .               ",
"                                    ",
"                                    ",
"                                    ",
"                                    ",
"                                    ",
"                                    ",
"                                    ",
"                                    "
};
