/* XPM */
static char *menu-active[] = {
/* columns rows colors chars-per-pixel */
"36 44 32 1",
"  c #0E7BC6",
". c #1C83C9",
"X c #1D83CA",
"o c #3993D0",
"O c #3A93D1",
"+ c #57A3D7",
"@ c #58A3D7",
"# c #74B3DE",
"$ c #75B3DE",
"% c #76B4DF",
"& c #8FC1E4",
"* c #8FC2E5",
"= c #90C2E5",
"- c #91C3E5",
"; c #A6CEEA",
": c #A7CFEA",
"> c #BBDAEF",
", c #BDDBEF",
"< c #BEDBF0",
"1 c #BFDCF0",
"2 c #D4E8F5",
"3 c #D5E8F5",
"4 c #D6E9F5",
"5 c #E0EEF8",
"6 c #E1EEF8",
"7 c #E3EFF8",
"8 c #EFF6FB",
"9 c #F9FCFE",
"0 c #FAFCFE",
"q c #FBFDFE",
"w c #FCFDFE",
"e c gray100",
/* pixels */
"                                    ",
"                                    ",
"                                    ",
"                                    ",
"                                    ",
"                                    ",
"                                    ",
"                                    ",
"                                    ",
"                                    ",
"                                    ",
"       .o+$*;,3689e8731;-%@o.       ",
"       eeeeeeeeeeeeeeeeeeeeee       ",
"       eeeeeeeeeeeeeeeeeeeeee       ",
"       eeeeeeeeeeeeeeeeeeeeee       ",
"                                    ",
"                                    ",
"                                    ",
"                                    ",
"                                    ",
"      eeeeeeeeeeeeeeeeeeeeeeee      ",
"      eeeeeeeeeeeeeeeeeeeeeeee      ",
"      eeeeeeeeeeeeeeeeeeeeeeee      ",
"      eeeeeeeeeeeeeeeeeeeeeeee      ",
"                                    ",
"                                    ",
"                                    ",
"                                    ",
"                                    ",
"       eeeeeeeeeeeeeeeeeeeeee       ",
"       eeeeeeeeeeeeeeeeeeeeee       ",
"       eeeeeeeeeeeeeeeeeeeeee       ",
"       .o+$*;>348ee863,;-%+o.       ",
"                                    ",
"                                    ",
"                                    ",
"                                    ",
"                                    ",
"                                    ",
"                                    ",
"                                    ",
"                                    ",
"                                    ",
"                                    "
};
