/* XPM */
static char *menu-inactive[] = {
/* columns rows colors chars-per-pixel */
"36 44 30 1",
"  c #536B7B",
". c #5D7483",
"X c #5E7483",
"o c #728693",
"O c #738693",
"+ c #8798A3",
"@ c #8898A3",
"# c #9CAAB3",
"$ c #9DAAB3",
"% c #9DABB4",
"& c #AFBAC1",
"* c #AFBBC2",
"= c #B0BBC2",
"- c #B1BCC3",
"; c #C0C8CE",
": c #C0C9CF",
"> c #CED5DA",
", c #D0D6DB",
"< c #D0D7DB",
"1 c #D1D8DC",
"2 c #E1E5E8",
"3 c #E2E6E9",
"4 c #E9ECEE",
"5 c #EBEEEF",
"6 c #F4F5F6",
"7 c #FBFCFC",
"8 c gray99",
"9 c #FCFDFD",
"0 c #FDFDFD",
"q c gray100",
/* pixels */
"                                    ",
"                                    ",
"                                    ",
"                                    ",
"                                    ",
"                                    ",
"                                    ",
"                                    ",
"                                    ",
"                                    ",
"                                    ",
"       .o+$*;,246qq6521;-%@o.       ",
"       qqqqqqqqqqqqqqqqqqqqqq       ",
"       qqqqqqqqqqqqqqqqqqqqqq       ",
"       qqqqqqqqqqqqqqqqqqqqqq       ",
"                                    ",
"                                    ",
"                                    ",
"                                    ",
"                                    ",
"      qqqqqqqqqqqqqqqqqqqqqqqq      ",
"      qqqqqqqqqqqqqqqqqqqqqqqq      ",
"      qqqqqqqqqqqqqqqqqqqqqqqq      ",
"      qqqqqqqqqqqqqqqqqqqqqqqq      ",
"                                    ",
"                                    ",
"                                    ",
"                                    ",
"                                    ",
"       qqqqqqqqqqqqqqqqqqqqqq       ",
"       qqqqqqqqqqqqqqqqqqqqqq       ",
"       qqqqqqqqqqqqqqqqqqqqqq       ",
"       .o+#*;>24677642>;*%+o.       ",
"                                    ",
"                                    ",
"                                    ",
"                                    ",
"                                    ",
"                                    ",
"                                    ",
"                                    ",
"                                    ",
"                                    ",
"                                    "
};
