/* XPM */
static char *menu-prelight[] = {
/* columns rows colors chars-per-pixel */
"36 44 109 2",
"   c #0E7BC6",
".  c #0F7CC6",
"X  c #107CC6",
"o  c #117DC7",
"O  c #127DC7",
"+  c #137EC7",
"@  c #147EC7",
"#  c #157FC8",
"$  c #167FC8",
"%  c #1780C8",
"&  c #1881C8",
"*  c #1981C9",
"=  c #1A82C9",
"-  c #1B82C9",
";  c #1C83C9",
":  c #1D83CA",
">  c #1E84CA",
",  c #1F84CA",
"<  c #2085CA",
"1  c #2185CA",
"2  c #2286CB",
"3  c #2386CB",
"4  c #2487CB",
"5  c #2587CB",
"6  c #2788CC",
"7  c #2889CC",
"8  c #298ACC",
"9  c #2A8BCD",
"0  c #2B8BCD",
"q  c #2C8CCD",
"w  c #2D8CCD",
"e  c #2E8DCE",
"r  c #2F8DCE",
"t  c #308ECE",
"y  c #318ECE",
"u  c #328FCE",
"i  c #338FCF",
"p  c #3490CF",
"a  c #3590CF",
"s  c #3791D0",
"d  c #3892D0",
"f  c #3A93D1",
"g  c #3B94D1",
"h  c #3C94D1",
"j  c #3E95D1",
"k  c #3F96D2",
"l  c #4096D2",
"z  c #4197D2",
"x  c #4297D2",
"c  c #4599D3",
"v  c #469AD3",
"b  c #479AD3",
"n  c #489BD4",
"m  c #499BD4",
"M  c #4A9CD4",
"N  c #4E9ED5",
"B  c #4F9ED6",
"V  c #509FD6",
"C  c #51A0D6",
"Z  c #53A1D6",
"A  c #55A2D7",
"S  c #56A2D7",
"D  c #57A3D7",
"F  c #58A3D7",
"G  c #59A4D8",
"H  c #5AA4D8",
"J  c #5BA5D8",
"K  c #5CA6D9",
"L  c #5DA6D9",
"P  c #5EA7D9",
"I  c #5FA8D9",
"U  c #60A8D9",
"Y  c #61A9DA",
"T  c #62A9DA",
"R  c #64AADA",
"E  c #65ABDB",
"W  c #66ABDB",
"Q  c #67ACDB",
"!  c #6BAEDC",
"~  c #6CAEDC",
"^  c #6EB0DD",
"/  c #6FB0DD",
"(  c #70B1DD",
")  c #71B1DD",
"_  c #71B1DE",
"`  c #72B2DE",
"'  c #73B2DE",
"]  c #74B3DE",
"[  c #8EC1E4",
"{  c #8FC1E4",
"}  c #A8CFEA",
"|  c #A9D0EB",
" . c #BCDAEF",
".. c #BCDBF0",
"X. c #BDDBF0",
"o. c #CCE3F3",
"O. c #D9EAF6",
"+. c #DAEBF6",
"@. c #DBEBF7",
"#. c #DBECF7",
"$. c #E8F2FA",
"%. c #E9F3FA",
"&. c #EEF6FB",
"*. c #EFF6FB",
"=. c #F0F6FB",
"-. c #F7FAFD",
";. c #FCFDFE",
":. c #FDFEFE",
">. c gray100",
/* pixels */
"                                                                        ",
"                                                                        ",
"                                                                        ",
"                                                                        ",
"                  . .   . . X X . .   . . .   .                         ",
"          . . .   + . + + + X X + + + $ + + + + + +   + . . .           ",
"        . . X X + + + $ $ $ $ $ $ & $ & $ $ $ $ + + + + +   . .         ",
"      . . + + $ & & & ; , , 1 1 , , , , 1 , , , , & & $ + + + . .       ",
"    . X + $ & , , 6 6 9 w w y y p y p y y y w w 0 0 4 , : $ $ +   .     ",
"  .   + $ & 1 6 w s g j x v m m M M M M m b v x k f s r 0 , $ $ + . .   ",
"    + + & 1 0 a j M C D J I U E E Q Q E E U I P S C M l s 9 1 $ + + .   ",
"    + $ & 6 p N _ [ } ..o.+.$.*.-.>.>.-.=.%.#.o...} { _ N p 6 , + + . . ",
"  X + $ , 0 g >.>.>.>.>.>.>.>.>.>.>.>.>.>.>.>.>.>.>.>.>.>.g 0 , $ + X . ",
"  X + & 1 w j >.>.>.>.>.>.>.>.>.>.>.>.>.>.>.>.>.>.>.>.>.>.j w , $ + X . ",
"  X + $ 1 9 g >.>.>.>.>.>.>.>.>.>.>.>.>.>.>.>.>.>.>.>.>.>.g 9 1 $ + .   ",
"  X + $ , 0 s v Z P E ~ ^ _ _ _ _ _ _ _ _ _ ^ ^ ! E I Z v s 0 , $ + . . ",
". . + $ , 6 p j M C J P I U U U U U U U U U U I J J C M k i 6 , $ + . . ",
". . + $ , 6 s j M V C F J J P P P J J P J P P J J C B m k s 6 , $ + + . ",
". + $ ; , r g m C J P I U R U U R R U R E U U U I P J B n g w , & $ + . ",
". + $ , 6 g b D R ! _ ' _ _ ] ] ] ' ' ' ] ] ] _ _ ^ ! R S n g 9 , $ + X ",
". + & , w z >.>.>.>.>.>.>.>.>.>.>.>.>.>.>.>.>.>.>.>.>.>.>.>.x w , & $ X ",
". + & 6 p b >.>.>.>.>.>.>.>.>.>.>.>.>.>.>.>.>.>.>.>.>.>.>.>.v s 6 & + X ",
"+ + & 6 s b >.>.>.>.>.>.>.>.>.>.>.>.>.>.>.>.>.>.>.>.>.>.>.>.v p 6 & $ X ",
". $ & , w j >.>.>.>.>.>.>.>.>.>.>.>.>.>.>.>.>.>.>.>.>.>.>.>.z w , $ + X ",
". + $ , 9 s M S U ! ^ _ ] ] _ _ ' ' ' ' ] ] ] _ _ ^ ! U S m s 0 , $ + . ",
"  + $ & , i g n Z J P P U U R R E U E U U E U U U P J Z b g r , & $ + . ",
". . + $ , 6 p j m N D D P J J J P J P J P J J J F Z N m k p 0 , $ + . . ",
". . + $ , 6 p k M Z D P P U U R U U U U U U U I P J Z M k p 6 : $ + X . ",
". X + $ , 9 s n Z P E ! ^ _ _ _ ] _ _ ' _ _ _ ^ ~ E P Z b s 0 : $ + X . ",
". X + & , 9 g >.>.>.>.>.>.>.>.>.>.>.>.>.>.>.>.>.>.>.>.>.>.g 9 , $ + X . ",
"  . + $ 1 w j >.>.>.>.>.>.>.>.>.>.>.>.>.>.>.>.>.>.>.>.>.>.j w 1 $ + .   ",
"  X X $ , 0 g >.>.>.>.>.>.>.>.>.>.>.>.>.>.>.>.>.>.>.>.>.>.g 9 , $ + .   ",
"  . + $ , 6 p N ^ [ } ..o.O.$.&.-.>.>.-.*.$.@.o...} [ _ N p 6 , $ X . . ",
"  . + + & 1 9 s j M Z D J I U U E E E E E U P J F Z m x s 9 , $ % . . . ",
"  .   + $ & 1 6 w s g j x b M M M M M M m m v x j f s w 6 , $ $ + . . . ",
"    .   X $ $ : 1 6 6 9 w w w y i i i s y y w w 9 6 4 1 , $ $ + . .     ",
"      . X + + $ $ = = , , , , , , , , , , , : : , & & $ $ + +   .       ",
"        .     + + + + + $ $ & & $ $ & & & $ $ $ $ $ + + + + . .         ",
"          . . . . . . + . + + + + + + + + + + + + . . .                 ",
"                  . . . . . . . .     . . . . . . . .                   ",
"                                                                        ",
"                                                                        ",
"                                                                        ",
"                                                                        "
};
