/* XPM */
static char *menu-pressed[] = {
/* columns rows colors chars-per-pixel */
"36 44 133 2",
"   c #0E7BC6",
".  c #0F7CC6",
"X  c #107CC6",
"o  c #117DC7",
"O  c #127DC7",
"+  c #137EC7",
"@  c #147EC7",
"#  c #157FC8",
"$  c #167FC8",
"%  c #1780C8",
"&  c #1881C8",
"*  c #1981C9",
"=  c #1A82C9",
"-  c #1B82C9",
";  c #1C83C9",
":  c #1D83CA",
">  c #1E84CA",
",  c #1F84CA",
"<  c #2085CA",
"1  c #2185CA",
"2  c #2286CB",
"3  c #2386CB",
"4  c #2487CB",
"5  c #2587CB",
"6  c #2788CC",
"7  c #2889CC",
"8  c #298ACC",
"9  c #2A8BCD",
"0  c #2B8BCD",
"q  c #2C8CCD",
"w  c #2D8CCD",
"e  c #2E8DCE",
"r  c #2F8DCE",
"t  c #308ECE",
"y  c #318ECE",
"u  c #328FCE",
"i  c #338FCF",
"p  c #3490CF",
"a  c #3590CF",
"s  c #3791D0",
"d  c #3892D0",
"f  c #3A93D1",
"g  c #3B94D1",
"h  c #3C94D1",
"j  c #3E95D1",
"k  c #3F96D2",
"l  c #4096D2",
"z  c #4197D2",
"x  c #4297D2",
"c  c #4599D3",
"v  c #469AD3",
"b  c #479AD3",
"n  c #479AD4",
"m  c #489BD4",
"M  c #499BD4",
"N  c #4A9CD4",
"B  c #509FD6",
"V  c #51A0D6",
"C  c #53A1D6",
"Z  c #55A2D7",
"A  c #56A2D7",
"S  c #57A3D7",
"D  c #58A3D7",
"F  c #59A4D8",
"G  c #5AA4D8",
"H  c #5BA5D8",
"J  c #5BA6D8",
"K  c #5CA6D9",
"L  c #5DA6D9",
"P  c #5EA7D9",
"I  c #5FA8D9",
"U  c #60A8D9",
"Y  c #61A9DA",
"T  c #62A9DA",
"R  c #64AADA",
"E  c #65ABDB",
"W  c #66ABDB",
"Q  c #67ACDB",
"!  c #6BAEDC",
"~  c #6CAEDC",
"^  c #6DAFDD",
"/  c #6EB0DD",
"(  c #6FB0DD",
")  c #70B1DD",
"_  c #71B1DD",
"`  c #72B2DE",
"'  c #73B2DE",
"]  c #74B3DE",
"[  c #7DB7E0",
"{  c #86BDE3",
"}  c #87BEE3",
"|  c #88BEE3",
" . c #8BBFE4",
".. c #90C2E5",
"X. c #91C3E5",
"o. c #92C3E5",
"O. c #94C5E6",
"+. c #97C6E7",
"@. c #98C6E6",
"#. c #99C6E7",
"$. c #9BC8E7",
"%. c #9CC9E7",
"&. c #9DC9E8",
"*. c #9ECAE8",
"=. c #9FCAE8",
"-. c #A0CBE9",
";. c #A1CBE9",
":. c #A2CCE9",
">. c #A3CCE9",
",. c #A3CDE9",
"<. c #A5CEEA",
"1. c #A6CEEA",
"2. c #A7CFEA",
"3. c #A7D0EB",
"4. c #A8D0EA",
"5. c #A8D0EB",
"6. c #AAD0EB",
"7. c #AAD1EB",
"8. c #ABD1EB",
"9. c #ACD2EB",
"0. c #ADD2EB",
"q. c #AED3EC",
"w. c #AFD3EC",
"e. c #B0D4EC",
"r. c #B1D4ED",
"t. c #B2D4ED",
"y. c #B2D5ED",
"u. c #B3D5ED",
"i. c #B3D6ED",
"p. c #B4D6ED",
"a. c #B5D6ED",
"s. c #B6D7EE",
"d. c #B7D8EE",
/* pixels */
"                                                                        ",
"                                                                        ",
"                                                                        ",
"                                                                        ",
"                    .   .   . .       . . .   .                         ",
"          . . .   + + + . + + + + + + $ + + + + + +   + . . .           ",
"        . . X X + + + + $ $ $ $ $ & $ & $ $ $ $ + + + + +   . .         ",
"      . . + + $ & & & , , , 1 1 , , , , 1 , , , , & & $ + + + . .       ",
"    . X + $ & , , 6 6 9 w w y y i i i y y w y w 0 0 4 1 & $ $ + . .     ",
"  .   + $ & 1 6 w s g j l n M M N N N N N n n l k f s r 0 1 & $ + . .   ",
"    + + & 1 0 a j N V S J I R R W W Q W W R I K A B N l s 9 , & + + .   ",
"    + $ & 6 a n J / [ } ..+.&.-.2.2.8.<.-.&.#...} [ ^ J n i 6 , $ X .   ",
"  X + $ , 0 g { X.&.<.2.9.9.u.u.s.u.s.u.u.u.9.9.2.<.$.X.} g 0 : $ % . . ",
"  X + & 1 w j } O.&.<.8.w.u.u.s.u.s.p.u.s.s.u.9.2.2.&.O.} j w 1 $ X . . ",
"  X + $ 1 9 g { X.$.-.<.8.8.8.9.0.0.9.9.q.9.8.2.2.-.$.X.{ g 9 1 $ % . . ",
"  X + $ , 0 s v C I Q ! / / ) ) ) ] ) ] ) ) ) / ^ Q K C v s 0 , $ + . . ",
". . % $ , 6 i k N B J K P P T T R R I R T T K K K J A M l i 6 : $ X . . ",
".   % $ , 6 s j N B A A J J J K J J J J J J K J D A B M j s 0 , $ % X . ",
". . % % 2 w g n B J L T T T T T R R I R T T T T P K D B n g w , = $ X . ",
". + $ , 9 d N A T ! ^ ' ' ] ' ' ) ' ' ) ] ] ] ] ) ) ^ T A n f 0 , $ + . ",
". + $ 2 w z  .+.=.<.8.9.9.w.w.w.q.q.q.q.q.q.q.q.8.8.2.=.+. .z w 2 $ % . ",
". % & 2 i n ..&.3.u.w.s.d.d.d.d.d.d.d.d.d.d.d.d.p.u.u.3.&...n s 6 & + . ",
". % & 6 s n ..&.3.q.s.s.d.d.d.d.d.d.d.d.d.d.d.d.p.p.u.3.$...v a 6 $ $ X ",
". % $ 2 r z  .+.=.8.9.9.9.u.9.9.q.q.q.q.q.q.q.q.q.q.2.&.+...z w 2 $ + X ",
". X $ , 9 g n S W ! / ' ' ' ' ' ' ' ' ' ' ' ' ) ) / ! T A n f 0 , $ + . ",
". + $ & 2 w g n B J K R T T T T T T T T T T T R I I J B n g w , & $ + . ",
". . + $ , 6 s j N N A S J J J J J J J J J J J J S A N N j i 0 , $ + X . ",
". . + $ , 6 i k N B J J K I T T T T T T T T I I K J A N k i 6 : $ + X . ",
". X + $ , 9 d v C I Q ! / / / ] ' ' ' ' ) ) ) / ! W I Z n s 0 , $ + X   ",
". X + $ , 9 g { X.$.=.<.3.8.8.9.8.9.9.8.8.8.8.8.2.-.$.X.} g 9 , $ + X . ",
". . + $ 1 9 j ..O.=.<.8.q.u.u.u.p.p.s.u.u.u.u.q.2.2.=.X. .j w 1 $ + .   ",
". . + $ , 8 d { X.&.-.8.8.q.u.u.i.p.i.u.u.u.q.9.2.<.$.X.{ g 9 , $ + .   ",
". . X $ , 6 i n J ! [ .. .+.=.-.2.2.2.2.-.-.#...} [ ^ J n i 6 , $ + .   ",
"  . . $ & , 9 s k N C S S I R W W W Q Q R R I J D C N j i 0 1 $ % . .   ",
"  . X + $ & , 6 w i g k z v v v N N N N N N n z j f s w 0 , & $ + . .   ",
"    . . + $ $ , 2 6 6 9 w w r i i i i i w y w w 0 0 4 1 : $ $ + . .     ",
"      . X + + $ $ $ = , , , 1 1 , , 2 1 2 , , , & : & $ $ + +   .       ",
"        . . X . % X % $ $ $ $ $ $ $ & & $ $ $ $ + $ + + . + . .         ",
"          . . . . . . X + . + + . + + + % . . . + . +     . .           ",
"                . . . . . . . . . . . . . . . .   .                     ",
"                . .                                                     ",
"                                                                        ",
"                                                                        ",
"                                                                        "
};
