/* XPM */
static char *shade-toggled-pressed[] = {
/* columns rows colors chars-per-pixel */
"36 44 153 2",
"   c #0E7BC6",
".  c #0F7CC6",
"X  c #107CC6",
"o  c #117DC7",
"O  c #127DC7",
"+  c #137EC7",
"@  c #147EC7",
"#  c #157FC8",
"$  c #167FC8",
"%  c #1780C8",
"&  c #1881C8",
"*  c #1981C9",
"=  c #1A82C9",
"-  c #1B82C9",
";  c #1C83C9",
":  c #1D83CA",
">  c #1E84CA",
",  c #1F84CA",
"<  c #2085CA",
"1  c #2185CA",
"2  c #2286CB",
"3  c #2386CB",
"4  c #2487CB",
"5  c #2587CB",
"6  c #2688CC",
"7  c #2788CC",
"8  c #2889CC",
"9  c #298ACC",
"0  c #2A8BCD",
"q  c #2B8BCD",
"w  c #2C8CCD",
"e  c #2D8CCD",
"r  c #2F8DCE",
"t  c #308ECE",
"y  c #318ECE",
"u  c #328FCE",
"i  c #338FCF",
"p  c #3490CF",
"a  c #3590CF",
"s  c #3691CF",
"d  c #3791D0",
"f  c #3992D0",
"g  c #3993D0",
"h  c #3A93D1",
"j  c #3B94D1",
"k  c #3C94D1",
"l  c #3D95D1",
"z  c #3E95D1",
"x  c #4096D2",
"c  c #4197D2",
"v  c #4398D3",
"b  c #4498D3",
"n  c #4599D3",
"m  c #469AD3",
"M  c #479AD4",
"N  c #489BD4",
"B  c #499BD4",
"V  c #4A9CD4",
"C  c #4B9DD5",
"Z  c #4C9DD5",
"A  c #4D9ED5",
"S  c #4E9ED5",
"D  c #509FD6",
"F  c #54A1D7",
"G  c #55A2D7",
"H  c #56A2D7",
"J  c #57A3D7",
"K  c #58A3D7",
"L  c #5CA6D8",
"P  c #5CA6D9",
"I  c #5DA6D9",
"U  c #62A9DA",
"Y  c #63AADA",
"T  c #66ABDB",
"R  c #69ADDB",
"E  c #6BAEDC",
"W  c #6CAEDC",
"Q  c #6CAFDC",
"!  c #6DAFDC",
"~  c #6DAFDD",
"^  c #71B1DD",
"/  c #79B6E0",
"(  c #7BB7E0",
")  c #7CB7E0",
"_  c #7DB8E0",
"`  c #7FB9E0",
"'  c #7FB9E1",
"]  c #80B9E1",
"[  c #81BAE1",
"{  c #83BBE1",
"}  c #82BAE2",
"|  c #84BCE2",
" . c #86BDE3",
".. c #88BEE3",
"X. c #8CC0E4",
"o. c #8DC0E4",
"O. c #8FC1E5",
"+. c #90C2E5",
"@. c #91C3E5",
"#. c #92C3E5",
"$. c #92C4E5",
"%. c #93C4E5",
"&. c #93C5E6",
"*. c #94C5E6",
"=. c #98C7E7",
"-. c #99C7E7",
";. c #9AC7E7",
":. c #9BC8E7",
">. c #9CC9E8",
",. c #9DC9E8",
"<. c #9ECAE8",
"1. c #9FCAE8",
"2. c #9FCBE9",
"3. c #A2CCE9",
"4. c #A3CDE9",
"5. c #A3CDEA",
"6. c #A4CDE9",
"7. c #A5CDE9",
"8. c #A6CEEA",
"9. c #A7CFEA",
"0. c #A7D0EB",
"q. c #A8D0EB",
"w. c #A9D0EB",
"e. c #ABD1EB",
"r. c #ADD2EB",
"t. c #ADD2EC",
"y. c #AED2EC",
"u. c #AED3EC",
"i. c #AFD3EC",
"p. c #B0D4EC",
"a. c #B0D4ED",
"s. c #B1D4ED",
"d. c #B2D4ED",
"f. c #B2D5ED",
"g. c #B3D5ED",
"h. c #B3D6ED",
"j. c #B5D6ED",
"k. c #B6D7EE",
"l. c #B6D8EE",
"z. c #B8D8EE",
"x. c #BBDAEF",
"c. c #BDDAEF",
"v. c #BDDBEF",
"b. c #BEDBEF",
"n. c #BDDBF0",
"m. c #BFDCF0",
"M. c #C0DCF0",
"N. c #C1DDF1",
"B. c #C2DEF1",
"V. c #C5DFF2",
"C. c #C6E0F1",
"Z. c #C8E0F2",
"A. c #CAE2F3",
/* pixels */
"                                                                        ",
"                                                                        ",
"                                                                        ",
"                                                                        ",
"                                                                        ",
"                                                                        ",
"              .         . .     .               . .   . .               ",
"          . . X   + + + + + + + + + + + + + + + + + + X X .             ",
"        . . + + @ @ % % - @ - % - $ - $ @ - @ - @ @ @ @ + +   .         ",
"      .   + + @ - - , , < < < 2 < 3 < 3 3 3 < < 2 , : - % + + X .       ",
"    . X + + % - 2 q e r y p p p s i s i s s y y e e q 2 , % + + X .     ",
"    . X + % , q e j z M B C C A A A A A A C C B M z h e 6 , @ + X       ",
"    . + @ - 3 y l A H I Y T R E ~ ~ ~ W E R T I I J C l r 3 - % +       ",
"    X + % , q h  .O.;.<.9.0.r.r.p.p.p.r.r.r.9.9.1.*.O. .j q , % + X     ",
"    X @ % < e l  .&.1.9.t.j.l.x.M.M.b.x.x.z.g.t.q.<.&. .l e , % +       ",
"    X X % , q j  .&.<.9.t.k.b.B.V.A.V.V.B.x.j.t.9.<.O. .j 0 , % +       ",
"      + % ; 6 d B K ^ ] &.9.g.c.V.A.A.V.c.p.1.%.] ~ K M s 6 : @ +       ",
"      + + % , 0 s M D I E / O.;.9.r.r.9.,...) ~ I A z i q : - @ + .     ",
"    . . + @ - , q y l B H ] 9.p.c.b.M.x.g.9.] J B h r q , - @ + . .     ",
"      . . + @ % , < 0 s M H ' 9.p.j.z.p.9.] J M s q 3 , - @ +   .       ",
"        . . + + - - , 6 r M H ' 9.w.w.9.] H M i 6 , - @ + +   .         ",
"          .   + X % - , q s M H / ;.;./ H M i q , - @ +   . .           ",
"            . . . + X - , 6 s z B ~ ~ A l s q 1 - + +   . .             ",
"            . . . X + X % , 6 r s h h s r 3 : @ + + . .                 ",
"                  . . . + % - 2 6 6 q 6 < : @ + . . .                   ",
"                    . . + + @ - - - - - - % + + . .                     ",
"                      . . . + + @ % @ @ + + . . .                       ",
"                          .   . . + . +     .   .                       ",
"                              . . . . . .                               ",
"                                .                                       ",
"                                                                        ",
"                                                                        ",
"                                                                        ",
"                                                                        ",
"                                                                        ",
"                                                                        ",
"                                                                        ",
"                                                                        ",
"                                                                        ",
"                                                                        ",
"                                                                        ",
"                                                                        ",
"                                                                        ",
"                                                                        "
};
