/* XPM */
static char *shade-toggled-prelight[] = {
/* columns rows colors chars-per-pixel */
"36 44 107 2",
"   c #0E7BC6",
".  c #0F7CC6",
"X  c #107CC6",
"o  c #117DC7",
"O  c #127DC7",
"+  c #137EC7",
"@  c #147EC7",
"#  c #157FC8",
"$  c #167FC8",
"%  c #1780C8",
"&  c #1881C8",
"*  c #1981C9",
"=  c #1A82C9",
"-  c #1B82C9",
";  c #1C83C9",
":  c #1D83CA",
">  c #1E84CA",
",  c #1F84CA",
"<  c #2085CA",
"1  c #2185CA",
"2  c #2286CB",
"3  c #2386CB",
"4  c #2487CB",
"5  c #2587CB",
"6  c #2688CC",
"7  c #2788CC",
"8  c #2889CC",
"9  c #298ACC",
"0  c #2A8BCD",
"q  c #2B8BCD",
"w  c #2C8CCD",
"e  c #2D8CCD",
"r  c #2F8DCE",
"t  c #308ECE",
"y  c #318ECE",
"u  c #328FCE",
"i  c #338FCF",
"p  c #3490CF",
"a  c #3590CF",
"s  c #3691CF",
"d  c #3791D0",
"f  c #3992D0",
"g  c #3993D0",
"h  c #3A93D1",
"j  c #3B94D1",
"k  c #3C94D1",
"l  c #3D95D1",
"z  c #3E95D1",
"x  c #4096D2",
"c  c #4197D2",
"v  c #4398D3",
"b  c #4599D3",
"n  c #469AD3",
"m  c #489BD4",
"M  c #499BD4",
"N  c #4A9CD4",
"B  c #4B9DD5",
"V  c #4C9DD5",
"C  c #4D9DD5",
"Z  c #4D9ED5",
"A  c #4E9ED5",
"S  c #509FD6",
"D  c #54A1D7",
"F  c #55A2D7",
"G  c #56A2D7",
"H  c #57A3D7",
"J  c #58A3D7",
"K  c #5CA6D9",
"L  c #5DA6D9",
"P  c #62A9DA",
"I  c #63AADA",
"U  c #64AADA",
"Y  c #66ABDB",
"T  c #69ADDB",
"R  c #6BAEDC",
"E  c #6CAEDC",
"W  c #6DAFDC",
"Q  c #70B0DD",
"!  c #7CB7E0",
"~  c #7DB8E0",
"^  c #82BAE2",
"/  c #8CC0E4",
"(  c #8DC0E4",
")  c #90C2E5",
"_  c #9BC8E7",
"`  c #A1CCE9",
"'  c #A6CEEA",
"]  c #A8CFEB",
"[  c #AAD0EB",
"{  c #ABD1EB",
"}  c #ADD2EC",
"|  c #AFD3EC",
" . c #AFD4EC",
".. c #B0D4EC",
"X. c #B4D6ED",
"o. c #BBDAEF",
"O. c #C1DDF1",
"+. c #D1E6F4",
"@. c #D5E8F5",
"#. c #E4F0F9",
"$. c #E6F1F9",
"%. c #F1F7FC",
"&. c #F2F8FC",
"*. c #F7FBFD",
"=. c #F8FBFD",
"-. c #FDFEFE",
";. c gray100",
/* pixels */
"                                                                        ",
"                                                                        ",
"                                                                        ",
"                                                                        ",
"                                                                        ",
"                                                                        ",
"              . . .     . .   . .               . .   . .               ",
"          . . X X   + + + + + X + + + + + + + + + + + X X .             ",
"        . . + + @ @ % % - % % - % % % % % - @ - @ @ @ @ + +             ",
"      .   + + @ - - , , < < < 3 < 6 < 4 < 3 < < 2 , : - % + + + .       ",
"    . X + + % - 2 q e r y y a a d a a a d i y y r e q 3 , % +   X .     ",
"    . X + % , q e j l m B B B V V V A V V V M m m l d e 6 , % + .       ",
"    . + @ - 3 y l V G L I Y T R W E E E R T Y I K G B l r 3 - % +       ",
"    X + % , q h ;.;.;.;.;.;.;.;.;.;.;.;.;.;.;.;.;.;.;.;.j q , % + X     ",
"    X @ % < e l ;.;.;.;.;.;.;.;.;.;.;.;.;.;.;.;.;.;.;.;.l e , % +       ",
"    X X % , q j ;.;.;.;.;.;.;.;.;.;.;.;.;.;.;.;.;.;.;.;.j 0 , % +       ",
"      + % ; 6 d V Q ^ { O.@.$.&.=.;.;.*.*.#.+.o.' ^ Y n a 4 : @ +       ",
"    . + + % , 0 a m G L Q ^ ^ _ ' } { ' ` ^ Q Q L V c i q , - @ + .     ",
"    . . + @ - , q y l M J ..;.;.;.;.;.;.;.;.X.J B j y q < - @ X . .     ",
"      . . + + - , 4 e d n G  .;.;.;.;.;.;.X.G n d q < , - % X X .       ",
"        . . + @ % - , q d v H } ;.;.;.;.X.G n y 6 , - @ X + . .         ",
"          . .   X % % , 6 d n D { ;.;...G n a q , - @ + X . .           ",
"            . . X + X - , 6 d c B ' ] B l a q , - + + . . .             ",
"        . . . . X X X X % , 6 e a h h d y 6 : @ + + . .                 ",
"                  . .   @ % - < 6 6 6 6 < : @ +   . .                   ",
"                    . . + + % % - - , - - % + + . .                     ",
"                      .   + + + @ % % + + + . . .                       ",
"                            . .   +   +     .   . .                     ",
"                              . . . . . .                               ",
"                                . .                                     ",
"                                                                        ",
"                                                                        ",
"                                                                        ",
"                                                                        ",
"                                                                        ",
"                                                                        ",
"                                                                        ",
"                                                                        ",
"                                                                        ",
"                                                                        ",
"                                                                        ",
"                                                                        ",
"                                                                        ",
"                                                                        "
};
