/* XPM */
static char *shade-toggled-inactive[] = {
/* columns rows colors chars-per-pixel */
"36 44 23 1",
"  c #536B7B",
". c #597080",
"X c #5C7382",
"o c #657A88",
"O c #708491",
"+ c #778A96",
"@ c #8596A1",
"# c #8E9EA9",
"$ c #98A7B0",
"% c #A3B0B9",
"& c #A5B2BA",
"* c #A9B5BD",
"= c #ACB8BF",
"- c #BCC5CB",
"; c #C0C9CF",
": c #D1D8DC",
"> c #D5DADE",
", c #E5E8EB",
"< c #E6EAEC",
"1 c #EFF2F3",
"2 c #F1F3F4",
"3 c #FAFBFB",
"4 c gray100",
/* pixels */
"                                    ",
"                                    ",
"                                    ",
"                                    ",
"                                    ",
"                                    ",
"                                    ",
"                                    ",
"                                    ",
"                                    ",
"                                    ",
"                                    ",
"                                    ",
"        44444444444444444444        ",
"        44444444444444444444        ",
"        44444444444444444444        ",
"        XO@$=;><2331,:-&#+o.        ",
"                                    ",
"             %44444444*             ",
"              %444444*              ",
"               %4444*               ",
"                %44*                ",
"                 **                 ",
"                                    ",
"                                    ",
"                                    ",
"                                    ",
"                                    ",
"                                    ",
"                                    ",
"                                    ",
"                                    ",
"                                    ",
"                                    ",
"                                    ",
"                                    ",
"                                    ",
"                                    ",
"                                    ",
"                                    ",
"                                    ",
"                                    ",
"                                    ",
"                                    "
};
