/* XPM */
static char *shade-pressed[] = {
/* columns rows colors chars-per-pixel */
"36 44 127 2",
"   c #0E7BC6",
".  c #0F7CC6",
"X  c #107CC6",
"o  c #117DC7",
"O  c #127DC7",
"+  c #137EC7",
"@  c #147EC7",
"#  c #157FC8",
"$  c #167FC8",
"%  c #1780C8",
"&  c #1881C8",
"*  c #1981C9",
"=  c #1A82C9",
"-  c #1B82C9",
";  c #1C83C9",
":  c #1D83CA",
">  c #1E84CA",
",  c #1F84CA",
"<  c #2085CA",
"1  c #2185CA",
"2  c #2286CB",
"3  c #2386CB",
"4  c #2487CB",
"5  c #2587CB",
"6  c #2688CC",
"7  c #2788CC",
"8  c #2889CC",
"9  c #298ACC",
"0  c #2A8BCD",
"q  c #2B8BCD",
"w  c #2C8CCD",
"e  c #2D8CCD",
"r  c #2E8DCE",
"t  c #2F8DCE",
"y  c #308ECE",
"u  c #318ECE",
"i  c #328FCE",
"p  c #338FCF",
"a  c #3490CF",
"s  c #3590CF",
"d  c #3992D0",
"f  c #3993D0",
"g  c #3A93D1",
"h  c #3B94D1",
"j  c #3D95D1",
"k  c #3E95D1",
"l  c #3F96D2",
"z  c #4096D2",
"x  c #4197D2",
"c  c #4297D2",
"v  c #4398D3",
"b  c #4599D3",
"n  c #4699D3",
"m  c #479AD3",
"M  c #489BD4",
"N  c #499BD4",
"B  c #4A9CD4",
"V  c #4B9DD5",
"C  c #4C9DD5",
"Z  c #4F9FD5",
"A  c #51A0D6",
"S  c #55A2D6",
"D  c #55A2D7",
"F  c #56A2D7",
"G  c #58A3D7",
"H  c #5BA5D8",
"J  c #5CA6D9",
"K  c #5FA8D9",
"L  c #60A8D9",
"P  c #61A9DA",
"I  c #62A9DA",
"U  c #64AADA",
"Y  c #65ABDB",
"T  c #66ABDB",
"R  c #67ACDB",
"E  c #68ACDB",
"W  c #69ADDB",
"Q  c #6CAEDD",
"!  c #77B4DF",
"~  c #7CB7E0",
"^  c #83BBE2",
"/  c #84BCE2",
"(  c #85BDE3",
")  c #86BDE3",
"_  c #87BDE3",
"`  c #88BEE3",
"'  c #8EC1E4",
"]  c #8FC1E5",
"[  c #90C2E5",
"{  c #90C3E5",
"}  c #91C3E5",
"|  c #92C4E5",
" . c #94C5E6",
".. c #97C6E7",
"X. c #98C6E7",
"o. c #98C7E7",
"O. c #9AC7E7",
"+. c #9BC8E7",
"@. c #9DC9E8",
"#. c #9ECAE8",
"$. c #9FCAE8",
"%. c #A0CBE9",
"&. c #A1CBE9",
"*. c #A2CCE9",
"=. c #A3CCE9",
"-. c #A4CDE9",
";. c #A5CEEA",
":. c #A6CEEA",
">. c #A6CFEA",
",. c #A7CFEA",
"<. c #A7D0EB",
"1. c #A8D0EB",
"2. c #A9D0EB",
"3. c #AAD0EB",
"4. c #AAD1EB",
"5. c #ABD1EB",
"6. c #ACD2EB",
"7. c #ADD2EB",
"8. c #AED2EC",
"9. c #AED3EC",
"0. c #AFD3EC",
"q. c #B0D4ED",
"w. c #B1D4ED",
"e. c #B2D4ED",
"r. c #B2D5ED",
"t. c #B3D5ED",
"y. c #B3D6ED",
/* pixels */
"                                                                        ",
"                                                                        ",
"                                                                        ",
"                                                                        ",
"                                                                        ",
"                                                                        ",
"              .         . . X . .               . .   . .               ",
"          . . X   + + + + + + X + + + + + + + + + + + X X .             ",
"        . . + + @ @ % % - % % % @ - % - @ - @ - @ @ @ + + + . .         ",
"      .   + + @ - - , , < < < 4 4 3 < < < 4 < < 4 , - - % + + . X       ",
"    . X + + % - 4 7 e t u p a a d u a a d p u u e e q 4 : - + + X       ",
"    . X + % , q e h l n M V V C V V C C C V V M n l d e 3 > @ + X       ",
"    . + @ - 3 u j C D J I Y R R W W W Y R R U I J D V j t 3 : @ o       ",
"    X + % , q g ( { X.#.;.;.2.2.5.5.2.5.2.2.;.*.#...] ( h q , % + X     ",
"    X @ % < e j `  .#.;.2.8.w.w.t.t.w.t.w.w.8.5.;.#.| ( j e 4 @ + X     ",
"    X X % , q h ( { #.&.1.5.8.w.t.t.t.w.w.8.2.;.&.X.] ( h q , % +       ",
"      o @ : 7 p n J Q ~ ` } o.$.;.;.>.;.#.o.] ^ ! Y S v p 6 - % +       ",
"      o @ $ 1 q p l M A G J P P U R R I I K H D C V j a q , - X + X     ",
"    . o @ @ $ 4 7 y p g l l n M B B V m M n v j h p e 7 , - % X X       ",
"    . . o + @ $ : 1 4 q 0 y y t u p u u t e q 7 7 3 < - % % X X X       ",
"        . . o o @ @ - - > , , , < < < < < , , , - % % % X + . .         ",
"          . . . + o + @ % @ @ % % % % - - @ @ + + + + . X . . .         ",
"            . . . . o . + . . + X X X + X + . + . . . . .   . .         ",
"            . . . . . . . . . . X X X X . . . . . .                     ",
"                                                                        ",
"                                                                        ",
"                                                                        ",
"                                                                        ",
"                                                                        ",
"                                                                        ",
"                                                                        ",
"                                                                        ",
"                                                                        ",
"                                                                        ",
"                                                                        ",
"                                                                        ",
"                                                                        ",
"                                                                        ",
"                                                                        ",
"                                                                        ",
"                                                                        ",
"                                                                        ",
"                                                                        ",
"                                                                        "
};
