/* XPM */
static char *shade-toggled-active[] = {
/* columns rows colors chars-per-pixel */
"36 44 24 1",
"  c #0E7BC6",
". c #1780C8",
"X c #1B82C9",
"o c #2788CC",
"O c #3791D0",
"+ c #4096D2",
"@ c #54A1D7",
"# c #61A9DA",
"$ c #6FB0DD",
"% c #7EB9E1",
"& c #81BAE1",
"* c #86BDE2",
"= c #87BDE3",
"- c #8BBFE4",
"; c #A0CBE9",
": c #A7CFEA",
"> c #BFDCF0",
", c #C3DEF1",
"< c #DAEBF6",
"1 c #DCECF7",
"2 c #E9F3FA",
"3 c #EBF4FA",
"4 c #F8FBFD",
"5 c gray100",
/* pixels */
"                                    ",
"                                    ",
"                                    ",
"                                    ",
"                                    ",
"                                    ",
"                                    ",
"                                    ",
"                                    ",
"                                    ",
"                                    ",
"                                    ",
"                                    ",
"        55555555555555555555        ",
"        55555555555555555555        ",
"        55555555555555555555        ",
"        XO@$-:,13442<>;%#OoX        ",
"                                    ",
"             %55555555=             ",
"              %555555=              ",
"               &5555=               ",
"                %55=                ",
"                 ==                 ",
"                                    ",
"                                    ",
"                                    ",
"                                    ",
"                                    ",
"                                    ",
"                                    ",
"                                    ",
"                                    ",
"                                    ",
"                                    ",
"                                    ",
"                                    ",
"                                    ",
"                                    ",
"                                    ",
"                                    ",
"                                    ",
"                                    ",
"                                    ",
"                                    "
};
