/* XPM */
static char *shade-prelight[] = {
/* columns rows colors chars-per-pixel */
"36 44 91 1",
"  c #0E7BC6",
". c #0F7CC6",
"X c #107CC6",
"o c #117DC7",
"O c #127DC7",
"+ c #137EC7",
"@ c #147EC7",
"# c #157FC8",
"$ c #167FC8",
"% c #1780C8",
"& c #1881C8",
"* c #1981C9",
"= c #1A82C9",
"- c #1B82C9",
"; c #1C83C9",
": c #1D83CA",
"> c #1E84CA",
", c #1F84CA",
"< c #2085CA",
"1 c #2185CA",
"2 c #2286CB",
"3 c #2386CB",
"4 c #2487CB",
"5 c #2587CB",
"6 c #2688CC",
"7 c #2788CC",
"8 c #2889CC",
"9 c #298ACC",
"0 c #2A8BCD",
"q c #2B8BCD",
"w c #2C8CCD",
"e c #2D8CCD",
"r c #2E8DCE",
"t c #2F8DCE",
"y c #308ECE",
"u c #318ECE",
"i c #328FCE",
"p c #338FCF",
"a c #3490CF",
"s c #3590CF",
"d c #3992D0",
"f c #3993D0",
"g c #3A93D1",
"h c #3B94D1",
"j c #3D95D1",
"k c #3E95D1",
"l c #3F96D2",
"z c #4096D2",
"x c #4197D2",
"c c #4297D2",
"v c #4599D3",
"b c #479AD3",
"n c #489BD4",
"m c #499BD4",
"M c #4A9CD4",
"N c #4B9DD5",
"B c #4C9DD5",
"V c #4F9FD5",
"C c #51A0D6",
"Z c #55A2D7",
"A c #56A2D7",
"S c #58A3D7",
"D c #5BA5D8",
"F c #5CA6D9",
"G c #5FA8D9",
"H c #60A8D9",
"J c #61A8DA",
"K c #61A9DA",
"L c #62A9DA",
"P c #64AADA",
"I c #65ABDB",
"U c #67ACDB",
"Y c #68ACDB",
"T c #69ADDB",
"R c #6FB0DD",
"E c #7DB8E0",
"W c #8CC0E4",
"Q c #9BC8E7",
"! c #A5CDEA",
"~ c #B3D5ED",
"^ c #BAD9EF",
"/ c #C8E1F2",
"( c #CCE3F3",
") c #DBEBF7",
"_ c #DEEDF7",
"` c #EBF4FA",
"' c #ECF5FB",
"] c #F3F9FC",
"[ c #F4F9FC",
"{ c #FBFDFE",
"} c gray100",
/* pixels */
"                                    ",
"                                    ",
"                                    ",
"                                    ",
"                                    ",
"                                    ",
"       ...  .. ..       .. ..       ",
"     ..XX +++++X+++++++++++XX.      ",
"    ..++@@%%-%%-@-%%%-@-@@++++      ",
"   . ++@--,,<<<32222<3<<2,,-%+++.   ",
"  .X++%-27etupsssssassuute73,%+ X.  ",
"  .X+%,quhxvbNNBBBBBBNNbvxge7,%+.   ",
"  .+@-3ujNZFLIUUTUUUUUILDZNjt2-%+   ",
"  X+%,qg}}}}}}}}}}}}}}}}}}}}hq,%+X  ",
"  X@%<ej}}}}}}}}}}}}}}}}}}}}je,%+   ",
"  XX%,qh}}}}}}}}}}}}}}}}}}}}h0,%+.  ",
"  . %:7aVTW!^(_'[{{]`)/~QELnp4:%+   ",
"  .++%,qsjNCDFGKIIILLGDZVNjpq,-X+.  ",
"  ..+#%,qtshlxvNMMNmvvlhfpe7,-%.X.  ",
"   ..+%%-,37qettuuuupeeq72<:%%X..   ",
"      ++@@==,,,,<<<<<,,:-%%+X+..    ",
"     + ++++@@%+%$&%--@@+++++X...    ",
"         ++ + ++XX@XX+++..... .     ",
"            .  .XXXX..  ..          ",
"                                    ",
"                                    ",
"                                    ",
"                                    ",
"                                    ",
"                                    ",
"                                    ",
"                                    ",
"                                    ",
"                                    ",
"                                    ",
"                                    ",
"                                    ",
"                                    ",
"                                    ",
"                                    ",
"                                    ",
"                                    ",
"                                    ",
"                                    "
};
