/* XPM */
static char *stick-active[] = {
/* columns rows colors chars-per-pixel */
"36 44 63 1",
"  c #0E7BC6",
". c #0F7CC6",
"X c #107CC6",
"o c #157FC8",
"O c #167FC8",
"+ c #1881C8",
"@ c #1981C9",
"# c #1A82C9",
"$ c #1C83C9",
"% c #1D83CA",
"& c #1E84CA",
"* c #2688CC",
"= c #2788CC",
"- c #298ACC",
"; c #3691CF",
": c #3791D0",
"> c #3892D0",
", c #4297D2",
"< c #4398D3",
"1 c #4499D3",
"2 c #4599D3",
"3 c #469AD3",
"4 c #66ABDB",
"5 c #67ACDB",
"6 c #68ACDB",
"7 c #69ADDB",
"8 c #6AADDC",
"9 c #6BAEDC",
"0 c #76B4DF",
"q c #77B4DF",
"w c #7CB7E0",
"e c #7EB8E0",
"r c #7FB9E1",
"t c #A0CBE8",
"y c #A0CBE9",
"u c #A1CCE9",
"i c #A2CCE9",
"p c #B1D4EC",
"a c #B1D5ED",
"s c #B2D5ED",
"d c #B3D6ED",
"f c #CAE2F2",
"g c #CBE3F3",
"h c #CCE3F3",
"j c #CDE4F3",
"k c #D1E6F4",
"l c #D5E8F5",
"z c #D8EAF6",
"x c #D9EAF6",
"c c #DBEBF7",
"v c #E3EFF8",
"b c #E4F0F9",
"n c #E8F3FA",
"m c #E9F3FA",
"M c #EAF4FA",
"N c #EFF6FB",
"B c #F0F7FB",
"V c #F1F7FC",
"C c #F2F8FC",
"Z c #F3F8FC",
"A c #F4F9FC",
"S c #FCFDFE",
"D c gray100",
/* pixels */
"                                    ",
"                                    ",
"                                    ",
"                                    ",
"                                    ",
"                                    ",
"                                    ",
"                                    ",
"                                    ",
"                                    ",
"                                    ",
"             &6acVVca6&X            ",
"           OrBDDDDDDDDNqo.          ",
"          =hDDDDDDDDDDDDk=          ",
"         =bDDDDt2$$2iDDDDv=         ",
"        OjDDDn,    . 2nDDDfO        ",
"        rDDDN;        ;ZDDDqX       ",
"       &NDDD5          6DDDN&.      ",
"      .9DDDcX.         .lDDD5       ",
"      XdDDD0            qDDDa       ",
"       cDDD:            ;DDDc       ",
"       VDDDo            +DDDB       ",
"      .VDDD+            +DDDB       ",
"      .cDDD:            >DDDc       ",
"       dDDDq           .qDDDa       ",
"       9DDDc           .lDDD4       ",
"       &BDDD5.         6DDDZ$       ",
"        rDDDN;        :ZDDDq        ",
"        OhDDDb<  ..  <mDDDfO        ",
"         =bDDDDt<++2tDDDDv=         ",
"          =fDDDDDDDDDDDDf=          ",
"           OrBDDDDDDDDNrX           ",
"             $9acNVca5$             ",
"                  X                 ",
"                                    ",
"                                    ",
"                                    ",
"                                    ",
"                                    ",
"                                    ",
"                                    ",
"                                    ",
"                                    ",
"                                    "
};
