/* XPM */
static char *stick-toggled-prelight[] = {
/* columns rows colors chars-per-pixel */
"36 44 154 2",
"   c #0E7BC6",
".  c #0F7CC6",
"X  c #107CC6",
"o  c #117DC7",
"O  c #127DC7",
"+  c #137EC7",
"@  c #147EC7",
"#  c #157FC8",
"$  c #167FC8",
"%  c #1780C8",
"&  c #1881C8",
"*  c #1981C9",
"=  c #1A82C9",
"-  c #1B82C9",
";  c #1C83C9",
":  c #1D83CA",
">  c #1E84CA",
",  c #1F84CA",
"<  c #2185CA",
"1  c #2286CB",
"2  c #2386CB",
"3  c #2487CB",
"4  c #2587CB",
"5  c #2688CC",
"6  c #2788CC",
"7  c #298ACC",
"8  c #2A8BCD",
"9  c #2B8BCD",
"0  c #2D8CCD",
"q  c #2E8DCE",
"w  c #2F8DCE",
"e  c #318ECE",
"r  c #328FCE",
"t  c #338FCF",
"y  c #3490CF",
"u  c #3590CF",
"i  c #3892D0",
"p  c #3993D0",
"a  c #3A93D1",
"s  c #3B94D1",
"d  c #3C94D1",
"f  c #3D95D1",
"g  c #3E95D1",
"h  c #3F96D2",
"j  c #4197D2",
"k  c #4398D3",
"l  c #4599D3",
"z  c #469AD3",
"x  c #479AD3",
"c  c #499BD4",
"v  c #4A9CD4",
"b  c #4D9ED5",
"n  c #4E9ED5",
"m  c #509FD6",
"M  c #52A0D6",
"N  c #53A1D6",
"B  c #54A1D7",
"V  c #56A2D7",
"C  c #58A3D7",
"Z  c #59A4D8",
"A  c #5AA4D8",
"S  c #5EA7D9",
"D  c #60A8D9",
"F  c #61A9DA",
"G  c #62A9DA",
"H  c #64AADB",
"J  c #65AADB",
"K  c #67ACDB",
"L  c #68ADDB",
"P  c #6BAEDC",
"I  c #6CAEDC",
"U  c #6DAFDC",
"Y  c #72B2DE",
"T  c #73B2DE",
"R  c #74B3DE",
"E  c #87BDE3",
"W  c #88BEE3",
"Q  c #89BEE3",
"!  c #8ABFE3",
"~  c #8BBFE4",
"^  c #8CC0E4",
"/  c #8DC0E4",
"(  c #8EC1E4",
")  c #8FC1E4",
"_  c #8FC2E5",
"`  c #90C2E5",
"'  c #91C3E5",
"]  c #92C3E5",
"[  c #93C4E5",
"{  c #93C4E6",
"}  c #94C4E6",
"|  c #94C5E6",
" . c #95C5E6",
".. c #99C7E7",
"X. c #9AC8E7",
"o. c #9ECAE8",
"O. c #A0CBE8",
"+. c #A2CCE9",
"@. c #A3CDE9",
"#. c #A4CDE9",
"$. c #A4CDEA",
"%. c #A5CDEA",
"&. c #A5CEEA",
"*. c #A6CEEA",
"=. c #A7CFEA",
"-. c #A8CFEA",
";. c #ADD2EC",
":. c #AFD3EC",
">. c #B0D4EC",
",. c #B1D4EC",
"<. c #B2D5ED",
"1. c #B3D6ED",
"2. c #BBDAEF",
"3. c #BCDAEF",
"4. c #BDDBEF",
"5. c #C3DEF1",
"6. c #C4DEF1",
"7. c #C4DFF1",
"8. c #C5DFF1",
"9. c #CFE5F4",
"0. c #D0E5F4",
"q. c #D1E6F4",
"w. c #D2E6F4",
"e. c #D2E7F4",
"r. c #D3E7F4",
"t. c #D3E7F5",
"y. c #D3E8F5",
"u. c #E0EEF7",
"i. c #E0EEF8",
"p. c #E0EFF8",
"a. c #E1EFF8",
"s. c #E2EFF8",
"d. c #E4F0F9",
"f. c #E8F2FA",
"g. c #E9F3FA",
"h. c #EAF3FA",
"j. c #EAF4FA",
"k. c #EBF4FA",
"l. c #EBF4FB",
"z. c #EDF5FB",
"x. c #EEF6FB",
"c. c #EFF6FB",
"v. c #F0F6FC",
"b. c #F4F9FD",
"n. c #F5FAFD",
"m. c #F6FAFD",
"M. c #F7FBFD",
"N. c #F8FBFD",
"B. c #F9FBFE",
"V. c #F9FCFD",
"C. c #F9FCFE",
"Z. c #FBFDFE",
"A. c #FEFEFF",
"S. c gray100",
/* pixels */
"                                                                        ",
"                                                                        ",
"                                                                        ",
"                                              .                         ",
"                .       . . X X . . . . . . . .                         ",
"                . . . . . X X X o . o o o . X o .                       ",
"                . . X . o + X $ $ o $ $ $ # o o . X .                   ",
"              . X X X $ $ $ & , , , > > ; & $ $ # o . . .               ",
"              X o # $ & , < 5 8 8 0 w 8 8 8 < , & # # o O               ",
"            X X $ & , 5 8 e t h h j j j a t w 8 5 , & # O               ",
"          O o $ & < 8 t h x b B C C C C B b x h t 8 < & & o X X         ",
"      . O o & & < w a x N L O.q.f.N.N.f.q.o.K N z a 0 2 , $ X X .       ",
"    . . o # & 5 e h b G >.m.S.S.S.S.S.S.S.S.m.:.G b h 0 < & # o . .     ",
"    X X o & 2 w h m T u.S.S.S.S.S.S.S.S.S.S.S.S.s.R m h w < & # X X     ",
"    . X & , 8 a b R v.S.S.S.S.q.%._ ` %.r.S.S.S.S.v.T b a 8 , # o X     ",
"  . X @ & 5 t v J u.S.S.S.m.%.! ! E E ! ! %.m.S.S.S.u.H v t 5 & o . .   ",
"  . % $ , 9 h B >.S.S.S.B.@./ ! E ~ ~ ! ! / @.B.S.S.S.,.B h 8 , $ o . . ",
"  . . @ 3 t c U B.S.S.S.2./ /  .q.N.B.q. ./ / 4.S.S.S.m.U c t < & o X . ",
". . % ; 4 a N =.S.S.S.z.[ /  .k.S.S.S.S.k.` _ [ z.S.S.S.@.N a 6 & $ . . ",
". . @ ; 9 h A y.S.S.S.8.` ` 8.S.S.S.S.S.S.6._ ` 6.S.S.S.q.A h 9 ; $ o . ",
". + $ , 9 k S k.S.S.S.%._ ` k.S.S.S.S.S.S.k.` _ =.S.S.S.f.S k 0 , $ o . ",
". X $ , w x S B.S.S.S.X._ [ B.S.S.S.S.S.S.B.` _ ..S.S.S.B.G x w , $ o . ",
". . $ , w k G B.S.S.S.X._ ` B.S.S.S.S.S.S.B.[ _ ..S.S.S.N.S k w , $ o . ",
". + + , w k S k.S.S.S.=._ [ z.S.S.S.S.S.S.k.[ _ =.S.S.S.k.S k 9 , $ o . ",
". + $ ; 9 h C y.S.S.S.8.` _ 5.S.S.S.S.S.S.6._ ` 6.S.S.S.q.A h 6 , $ X . ",
". . + ; 5 a M &.S.S.S.z.[ _ [ k.S.S.S.S.k.` _ ` z.S.S.S.+.N p 6 & # X X ",
". . o $ 1 t v U B.S.S.S.2./ /  .q.B.N.q.[ _ _ 2.S.S.S.n.L c t 3 & X X   ",
". . o $ > 9 h V >.S.S.S.N.%./ ! ! ! ! ! ! ! @.B.S.S.S.,.B h 9 , $ X .   ",
". . . $ & 5 t v J u.S.S.S.m.%.! ! E E E ! %.m.S.S.S.u.G c t 4 & @ X X   ",
"  . . o $ > 9 a b R v.S.S.S.S.q.@./ / %.q.S.S.S.S.c.T b h 8 < @ X . .   ",
"    . . + $ 2 q h b R y.S.S.S.S.S.S.S.S.S.S.S.S.u.T m h w < & X X .     ",
"    . . + $ & 2 e h N G :.m.S.S.S.S.S.S.S.S.m.:.G b h w < , $ X         ",
"      . X o # , 2 w a x N J o.q.f.N.N.f.q.o.K N z a 0 < , # X O         ",
"          o o # & < 8 t h x b N C C C C B b z a t 8 < & & X O           ",
"          . . o # & , 5 8 e t h h j j h h t e 8 5 , & # X X .           ",
"            . . o o # & , < 5 8 8 0 0 8 8 5 2 , & # # o X .             ",
"              . . X X # # # & , , , , , , & & # # O O                   ",
"                  . X X X # @ # # # # # # # o o O                       ",
"                      . . X X X o o o o X X X .                         ",
"                        . . . X . . . . . X .                           ",
"                                                                        ",
"                                                                        ",
"                                                                        ",
"                                                                        "
};
