/* XPM */
static char *stick-prelight[] = {
/* columns rows colors chars-per-pixel */
"36 44 146 2",
"   c #0E7BC6",
".  c #0F7CC6",
"X  c #107CC6",
"o  c #117DC7",
"O  c #127DC7",
"+  c #137EC7",
"@  c #147EC7",
"#  c #157FC8",
"$  c #167FC8",
"%  c #1780C8",
"&  c #1881C8",
"*  c #1981C9",
"=  c #1A82C9",
"-  c #1B82C9",
";  c #1C83C9",
":  c #1D83CA",
">  c #1E84CA",
",  c #1F84CA",
"<  c #2185CA",
"1  c #2286CB",
"2  c #2386CB",
"3  c #2487CB",
"4  c #2587CB",
"5  c #2688CC",
"6  c #2788CC",
"7  c #2889CC",
"8  c #298ACC",
"9  c #2A8BCD",
"0  c #2B8BCD",
"q  c #2D8CCD",
"w  c #2E8DCE",
"e  c #2F8DCE",
"r  c #318ECE",
"t  c #328FCE",
"y  c #338FCF",
"u  c #3490CF",
"i  c #3590CF",
"p  c #3892D0",
"a  c #3992D0",
"s  c #3993D0",
"d  c #3A93D1",
"f  c #3B94D1",
"g  c #3C94D1",
"h  c #3D95D1",
"j  c #3E95D1",
"k  c #3F96D2",
"l  c #4197D2",
"z  c #4297D2",
"x  c #4398D3",
"c  c #4499D3",
"v  c #4599D3",
"b  c #469AD3",
"n  c #479AD3",
"m  c #499BD4",
"M  c #4A9CD4",
"N  c #4B9DD5",
"B  c #4D9ED5",
"V  c #4E9ED5",
"C  c #509FD6",
"Z  c #52A0D6",
"A  c #53A1D6",
"S  c #54A1D7",
"D  c #56A2D7",
"F  c #57A3D7",
"G  c #59A4D8",
"H  c #5AA4D8",
"J  c #5BA5D8",
"K  c #5CA6D9",
"L  c #5DA6D9",
"P  c #5EA7D9",
"I  c #60A8D9",
"U  c #60A8DA",
"Y  c #61A9DA",
"T  c #62A9DA",
"R  c #63AADA",
"E  c #64AADA",
"W  c #65AADB",
"Q  c #65ABDB",
"!  c #66ABDB",
"~  c #67ABDB",
"^  c #67ACDB",
"/  c #68ACDB",
"(  c #6AADDC",
")  c #6BAEDC",
"_  c #6CAEDC",
"`  c #6DAFDC",
"'  c #71B1DE",
"]  c #72B2DD",
"[  c #72B2DE",
"{  c #73B2DE",
"}  c #77B5DF",
"|  c #79B6DF",
" . c #7DB8E0",
".. c #7DB8E1",
"X. c #7EB8E1",
"o. c #8DC0E4",
"O. c #90C2E5",
"+. c #91C3E5",
"@. c #92C4E5",
"#. c #93C4E5",
"$. c #93C4E6",
"%. c #94C4E5",
"&. c #95C5E6",
"*. c #9DCAE8",
"=. c #9ECAE8",
"-. c #9FCBE8",
";. c #A1CCE9",
":. c #A2CCE9",
">. c #A4CDEA",
",. c #A5CEEA",
"<. c #ACD2EB",
"1. c #ADD2EB",
"2. c #ADD2EC",
"3. c #AFD3EC",
"4. c #B0D4EC",
"5. c #B2D5ED",
"6. c #B6D7EE",
"7. c #B7D7EE",
"8. c #CAE2F2",
"9. c #CAE2F3",
"0. c #CBE3F3",
"q. c #CCE3F3",
"w. c #CFE5F4",
"e. c #D0E6F4",
"r. c #D2E6F4",
"t. c #D3E7F5",
"y. c #E0EEF7",
"u. c #E0EEF8",
"i. c #E1EEF8",
"p. c #E1EFF8",
"a. c #E2EFF8",
"s. c #E4F0F8",
"d. c #E8F2FA",
"f. c #EAF3FA",
"g. c #EBF4FA",
"h. c #EBF4FB",
"j. c #EFF6FB",
"k. c #EFF6FC",
"l. c #F3F9FC",
"z. c #F4F9FC",
"x. c #F6FAFD",
"c. c #F7FBFD",
"v. c #F8FBFD",
"b. c #F9FCFD",
"n. c #FDFEFE",
"m. c gray100",
/* pixels */
"                                                                        ",
"                                                                        ",
"                                                                        ",
"                                              .                         ",
"                .       . . . . . . . . . . . .                         ",
"                . . . . . X X o o . o o o . X o .                       ",
"                . . . . o + X $ $ o $ $ $ # o o . X .                   ",
"              . X X X $ $ $ ; ; , , > > ; & $ $ # o . . .               ",
"              X o # $ & , < 5 9 9 e e 9 9 5 < , & # # X X X             ",
"            X X $ & , 5 9 r p d j l l j j y t 9 5 , & # o X .           ",
"          O o $ & < 9 t j n V A F G G F A V n j y 9 , & $ o X .         ",
"      . O o & & 2 e d n A ~ -.e.s.b.b.d.q.-.~ A n d e < , # o X .       ",
"    . . o # & 5 e j V U 3.x.m.m.m.m.m.m.m.m.x.3.U V j t 2 & # o .       ",
"    X X o & 2 e j C { a.m.m.m.m.m.m.m.m.m.m.m.m.a.{ C j e < & # X .     ",
"    . X & , 9 d V { k.m.m.m.m.9.&.| | &.q.m.m.m.m.j.{ V d 9 , # X .     ",
"  . X @ & 5 y M W a.m.m.m.l.@./ U J G U / &.l.m.m.m.y.U M y 5 & # X .   ",
". X o & , 9 l D 4.m.m.m.b.o.~ F M n n M F ^ o.c.m.m.m.4.D j 9 , $ o .   ",
". X o & 2 y M _ b.m.m.m.<./ A l s t u y l A ^ 3.m.m.m.x._ M y < & o X . ",
". X X & 5 d A ,.m.m.m.g.] G n r 9 4 4 9 r n J ] f.m.m.m.:.A d 5 & # . . ",
". o # , 9 j G e.m.m.m.7.^ B d 5 , & & , 8 s B / 6.m.m.m.e.G j 9 ; $ o . ",
"X o # , 9 x J k.m.m.m.+.P n r < & $ $ $ 3 r n P +.m.m.m.f.J n e , $ o . ",
"X o # , e n U b.m.m.m. .P l e , & X $ $ , e l K  .m.m.m.v.U n e , $ o . ",
"O o # < e l U b.m.m.m. .K l e , $ + + $ , 9 l P  .m.m.m.v.U l e , $ o . ",
"  o # , e n J g.m.m.m.+.P n e 3 & $ $ & 3 w n U +.m.m.m.f.J l e , $ o . ",
"  o # , 9 j G t.m.m.m.6.~ V d 5 , ; ; , 8 d V ~ 6.m.m.m.e.G j 9 , # X . ",
"X X # & 5 d A ,.m.m.m.g.{ G n r 5 3 3 5 r l J { f.m.m.m.:.A d 5 & # X X ",
". X o & 5 y M _ b.m.m.m.1.~ A l p r r p n A ~ 1.m.m.m.x./ M t 5 & o X   ",
"  . o # , 9 j D 4.m.m.m.b.o.~ D M b n M D ~ o.v.m.m.m.4.D j 9 , $ X .   ",
"    O # $ 5 y M ~ t.m.m.m.l.&./ P G G P / &.x.m.m.m.a.U M y 5 & @ X X   ",
"      o # , 9 d V { l.m.m.m.m.9.@. .} &.9.m.m.m.m.k.{ V d 9 , # X . .   ",
"    X X # & < e j B ' a.m.m.m.m.m.m.m.m.m.m.m.m.y.{ C j t < & o X .     ",
"        o # & 2 e j M U 3.x.m.m.m.m.m.m.m.m.x.3.J V j e 2 & # o         ",
"      . X X $ , < e d n C ~ -.q.f.x.v.f.q.-.W A n d e < , # X O         ",
"        . X o & & < 9 y j n V A G G G D A V n d y 5 < & # o O           ",
"          . X X # & , 5 9 t d d j l l j d d t 9 5 , & $ o X .           ",
"          . X X o o # & , < 5 9 9 9 e 9 9 5 < , & $ o o X .             ",
"              . . X X # # & & , , , , , , & & # # X . . .               ",
"                  X X X X o # # # # # # # # o o X . .                   ",
"                      . . X   X o o o o X X X . .                       ",
"                          . . X . . . . . X .   . .                     ",
"                                                                        ",
"                                                                        ",
"                                                                        ",
"                                                                        "
};
