/* XPM */
static char *stick-toggled-active[] = {
/* columns rows colors chars-per-pixel */
"36 44 73 1",
"  c #0E7BC6",
". c #0F7CC6",
"X c #107CC6",
"o c #147EC7",
"O c #157FC8",
"+ c #167FC8",
"@ c #1881C8",
"# c #1981C9",
"$ c #1A82C9",
"% c #1C83C9",
"& c #1D83CA",
"* c #1E84CA",
"= c #2688CC",
"- c #2788CC",
"; c #298ACC",
": c #3691CF",
"> c #3791D0",
", c #3892D0",
"< c #4297D2",
"1 c #4398D3",
"2 c #4499D3",
"3 c #4599D3",
"4 c #469AD3",
"5 c #66ABDB",
"6 c #67ACDB",
"7 c #68ACDB",
"8 c #69ADDB",
"9 c #6AADDC",
"0 c #6BAEDC",
"q c #76B4DF",
"w c #77B4DF",
"e c #78B5DF",
"r c #79B5DF",
"t c #7BB7E0",
"y c #7CB7E0",
"u c #7EB8E0",
"i c #7FB9E1",
"p c #9ECAE8",
"a c #9FCAE8",
"s c #A0CBE8",
"d c #A0CBE9",
"f c #A1CCE9",
"g c #A2CCE9",
"h c #B1D4EC",
"j c #B1D5ED",
"k c #B2D5ED",
"l c #B3D6ED",
"z c #CAE2F2",
"x c #CBE3F3",
"c c #CCE3F3",
"v c #CDE4F3",
"b c #CEE4F3",
"n c #CFE5F4",
"m c #D0E5F4",
"M c #D1E6F4",
"N c #D5E8F5",
"B c #D8EAF6",
"V c #D9EAF6",
"C c #DBEBF7",
"Z c #E3EFF8",
"A c #E4F0F9",
"S c #E8F3FA",
"D c #E9F3FA",
"F c #EAF4FA",
"G c #EFF6FB",
"H c #F0F7FB",
"J c #F1F7FC",
"K c #F2F8FC",
"L c #F3F8FC",
"P c #F4F9FC",
"I c #F6FAFD",
"U c #FCFDFE",
"Y c gray100",
/* pixels */
"                                    ",
"                                    ",
"                                    ",
"                                    ",
"                                    ",
"                                    ",
"                                    ",
"                                    ",
"                                    ",
"                                    ",
"                                    ",
"             *8kVPJVk8*.            ",
"           +iHYYYYYYYYGrO.          ",
"          -cYYYYYYYYYYYYM-          ",
"         -AYYYYp3$*3gYYYYZ-         ",
"        +vYYYS<      3SYYYz+        ",
"        iYYYJ> .      >JYYYr.       ",
"       *GYYY6  *sJHs*  8YYYG*       ",
"       0YYYV. OMYYYYvo .NYYY6       ",
"       lYYYq  rYYYYYYe  wYYYk       ",
"       CYYY>  MYYYYYYv  ,YYYV       ",
"       PYYYO  PYYYYYYP  $YYYJ       ",
"       PYYY$  PYYYYYYP  $YYYJ       ",
"       VYYY>..vYYYYYYv  :YYYV       ",
"       lYYYw  rYYYYYYw  wYYYk       ",
"       0YYYV. ovYYYYco .NYYY5       ",
"       *HYYY6  *pHGp$..8YYYH$       ",
"        iYYYJ:        >JYYYr        ",
"        +cYYYA<      3DYYYz+        ",
"         -AYYYYs3$$3sYYYYZ-         ",
"          -zYYYYYYYYYYYYz-          ",
"          .oiJYYYYYYYYGr+           ",
"             *5kVPPVk6*             ",
"                                    ",
"                                    ",
"                                    ",
"                                    ",
"                                    ",
"                                    ",
"                                    ",
"                                    ",
"                                    ",
"                                    ",
"                                    "
};
