/* XPM */
static char *stick-toggled-inactive[] = {
/* columns rows colors chars-per-pixel */
"36 44 70 1",
"  c #536B7B",
". c #546C7C",
"X c #576E7E",
"o c #586F7F",
"O c #58707F",
"+ c #5A7181",
"@ c #5B7281",
"# c #5C7382",
"$ c #5D7483",
"% c #5E7483",
"& c #5E7584",
"* c #647A88",
"= c #657A88",
"- c #677C8A",
"; c #6F8391",
": c #708491",
"> c #718592",
", c #788B97",
"< c #798B98",
"1 c #798C99",
"2 c #7A8D99",
"3 c #7B8D9A",
"4 c #92A1AB",
"5 c #92A2AC",
"6 c #93A2AC",
"7 c #94A3AD",
"8 c #95A4AE",
"9 c #9DABB4",
"0 c #9EABB4",
"q c #9FACB5",
"w c #9FADB5",
"e c #A1AEB7",
"r c #A3AFB8",
"t c #A4B1B9",
"y c #BAC3CA",
"u c #BAC4CA",
"i c #BBC4CB",
"p c #BCC5CB",
"a c #BCC6CC",
"s c #BDC6CC",
"d c #C7CFD4",
"f c #C8CFD5",
"g c #C8D0D5",
"h c #C9D1D6",
"j c #D9DEE2",
"k c #DADFE3",
"l c #DBE0E3",
"z c #DBE0E4",
"x c #DCE1E4",
"c c #DDE1E5",
"v c #DDE2E5",
"b c #DEE3E6",
"n c #E1E5E8",
"m c #E3E7EA",
"M c #E4E8EA",
"N c #E5E9EB",
"B c #EBEEEF",
"V c #EBEEF0",
"C c #EFF1F3",
"Z c #EFF2F3",
"A c #F0F2F4",
"S c #F4F5F6",
"D c #F4F6F7",
"F c #F5F6F7",
"G c #F6F7F8",
"H c #F7F8F9",
"J c #F8F9FA",
"K c #F9FAFA",
"L c #FDFDFD",
"P c gray100",
/* pixels */
"                                    ",
"                                    ",
"                                    ",
"                                    ",
"                                    ",
"                                    ",
"                                    ",
"                                    ",
"                                    ",
"                                    ",
"                                    ",
"             %7hmJDmh6%             ",
"           OtDPPPPPPPPSeX           ",
"          =lPPPPPPPPPPPPb-          ",
"         =VPPPPu2%%2sPPPPV=         ",
"        OzPPPC,      2CPPPjo        ",
"       .tPPPF:        :FPPPe        ",
"       %DPPP6  &iDDi%  7PPPD#       ",
"       8PPPn  oxPPPPxX .nPPP6       ",
"      .hPPP0  ePPPPPPq  0PPPd       ",
"       mPPP:  xPPPPPPx  :PPPm       ",
"       JPPP@  KPPPPPPJ  @PPPH       ",
"       JPPP@  JPPPPPPH  @PPPD       ",
"       mPPP;  xPPPPPPz  :PPPm       ",
"       hPPPq  qPPPPPP0  qPPPd       ",
"       8PPPnX XzPPPPko  nPPP6       ",
"       %DPPP6  #uDDy%  7PPPD#       ",
"        tPPPS;        :DPPPe        ",
"        OxPPPC,      2APPPjo        ",
"         =BPPPPu,##2uPPPPB*         ",
"          =jPPPPPPPPPPPPj*          ",
"           oeDPPPPPPPPDeo           ",
"             %6hmHHmh6%             ",
"                                    ",
"                                    ",
"                                    ",
"                                    ",
"                                    ",
"                                    ",
"                                    ",
"                                    ",
"                                    ",
"                                    ",
"                                    "
};
