/* XPM */
static char *stick-inactive[] = {
/* columns rows colors chars-per-pixel */
"36 44 60 1",
"  c #536B7B",
". c #546C7C",
"X c #586F7F",
"o c #58707F",
"O c #5A7181",
"+ c #5B7281",
"@ c #5C7382",
"# c #5D7483",
"$ c #5E7483",
"% c #5E7584",
"& c #647A88",
"* c #657A88",
"= c #677C8A",
"- c #6F8391",
"; c #708491",
": c #718592",
"> c #788B97",
", c #798B98",
"< c #798C99",
"1 c #7A8D99",
"2 c #7B8D9A",
"3 c #92A1AB",
"4 c #92A2AC",
"5 c #93A2AC",
"6 c #94A3AD",
"7 c #95A4AE",
"8 c #9DABB4",
"9 c #9EABB4",
"0 c #A1AEB7",
"q c #A3AFB8",
"w c #A4B1B9",
"e c #BBC4CB",
"r c #BCC5CB",
"t c #BCC6CC",
"y c #BDC6CC",
"u c #C7CFD4",
"i c #C8CFD5",
"p c #C8D0D5",
"a c #C9D1D6",
"s c #D9DEE2",
"d c #DADFE3",
"f c #DBE0E3",
"g c #DBE0E4",
"h c #DEE3E6",
"j c #E1E5E8",
"k c #E3E7EA",
"l c #E4E8EA",
"z c #E5E9EB",
"x c #EBEEEF",
"c c #EBEEF0",
"v c #EFF1F3",
"b c #EFF2F3",
"n c #F0F2F4",
"m c #F4F5F6",
"M c #F4F6F7",
"N c #F5F6F7",
"B c #F6F7F8",
"V c #F7F8F9",
"C c #FDFDFD",
"Z c gray100",
/* pixels */
"                                    ",
"                                    ",
"                                    ",
"                                    ",
"                                    ",
"                                    ",
"                                    ",
"                                    ",
"                                    ",
"                                    ",
"                                    ",
"            .$5plVNlp5$             ",
"           owMZZZZZZZZm0o           ",
"          *fZZZZZZZZZZZZh=          ",
"         *cZZZZe1$$1yZZZZx*.        ",
"        ogZZZv>      1vZZZg.        ",
"      ..qZZZN-        -BZZZ0        ",
"       $MZZZ5          6ZZZM@       ",
"       6ZZZk.          .jZZZ5       ",
"      .pZZZ9            9ZZZu       ",
"       zZZZ-            :ZZZl       ",
"       VZZZO            OZZZN       ",
"       VZZZO            OZZZN       ",
"       lZZZ-            :ZZZl       ",
"       pZZZ9.           9ZZZu       ",
"      .6ZZZj.          .jZZZ3       ",
"       $MZZZ5          5ZZZM@       ",
"       .qZZZN-        :NZZZ0        ",
"        OfZZZv,      1bZZZd.        ",
"         *cZZZZe1@@1eZZZZc*         ",
"          *sZZZZZZZZZZZZs*          ",
"           o0mZZZZZZZZMq.           ",
"             $5plBBlp5$             ",
"                  ..                ",
"                                    ",
"                                    ",
"                                    ",
"                                    ",
"                                    ",
"                                    ",
"                                    ",
"                                    ",
"                                    ",
"                                    "
};
