/* XPM */
static char *stick-pressed[] = {
/* columns rows colors chars-per-pixel */
"36 44 145 2",
"   c #0E7BC6",
".  c #0F7CC6",
"X  c #107CC6",
"o  c #117DC7",
"O  c #127DC7",
"+  c #137EC7",
"@  c #147EC7",
"#  c #157FC8",
"$  c #167FC8",
"%  c #1780C8",
"&  c #1881C8",
"*  c #1981C9",
"=  c #1A82C9",
"-  c #1B82C9",
";  c #1C83C9",
":  c #1D83CA",
">  c #1E84CA",
",  c #1F84CA",
"<  c #2185CA",
"1  c #2286CB",
"2  c #2386CB",
"3  c #2487CB",
"4  c #2587CB",
"5  c #2688CC",
"6  c #2788CC",
"7  c #2889CC",
"8  c #298ACC",
"9  c #2A8BCD",
"0  c #2B8BCD",
"q  c #2D8CCD",
"w  c #2E8DCE",
"e  c #2F8DCE",
"r  c #318ECE",
"t  c #328FCE",
"y  c #338FCF",
"u  c #3490CF",
"i  c #3590CF",
"p  c #3892D0",
"a  c #3992D0",
"s  c #3993D0",
"d  c #3A93D1",
"f  c #3B94D1",
"g  c #3C94D1",
"h  c #3D95D1",
"j  c #3E95D1",
"k  c #3F96D2",
"l  c #4197D2",
"z  c #4297D2",
"x  c #4398D3",
"c  c #4499D3",
"v  c #4599D3",
"b  c #469AD3",
"n  c #479AD3",
"m  c #499BD4",
"M  c #4A9CD4",
"N  c #4B9DD5",
"B  c #4D9ED5",
"V  c #4E9ED5",
"C  c #509FD6",
"Z  c #52A0D6",
"A  c #53A1D6",
"S  c #54A1D7",
"D  c #56A2D7",
"F  c #57A3D7",
"G  c #59A4D8",
"H  c #5AA4D8",
"J  c #5BA5D8",
"K  c #5CA6D8",
"L  c #5CA6D9",
"P  c #5DA6D9",
"I  c #5EA7D9",
"U  c #5FA8D9",
"Y  c #5FA8DA",
"T  c #60A8D9",
"R  c #61A9D9",
"E  c #61A9DA",
"W  c #65ABDB",
"Q  c #66ACDB",
"!  c #67ACDB",
"~  c #68ACDB",
"^  c #68ADDB",
"/  c #6AADDC",
"(  c #71B1DD",
")  c #72B1DD",
"_  c #72B2DE",
"`  c #73B3DE",
"'  c #76B4DE",
"]  c #77B4DE",
"[  c #78B5DF",
"{  c #79B5E0",
"}  c #7AB6E0",
"|  c #7DB7E0",
" . c #7DB8E0",
".. c #7EB8E0",
"X. c #7EB8E1",
"o. c #7FB8E0",
"O. c #7FB9E0",
"+. c #80B9E1",
"@. c #80BAE1",
"#. c #81BAE1",
"$. c #82BBE2",
"%. c #83BBE2",
"&. c #8BBFE4",
"*. c #8CC0E4",
"=. c #91C3E5",
"-. c #93C4E5",
";. c #94C4E5",
":. c #95C5E5",
">. c #94C5E6",
",. c #95C5E6",
"<. c #96C5E6",
"1. c #97C6E6",
"2. c #9AC8E7",
"3. c #9BC8E7",
"4. c #9CC9E7",
"5. c #9DC9E8",
"6. c #9EC9E8",
"7. c #A2CCE9",
"8. c #A3CCE9",
"9. c #A3CDE9",
"0. c #A4CDE9",
"q. c #A5CDE9",
"w. c #A5CEEA",
"e. c #A6CEEA",
"r. c #A7CFEA",
"t. c #A8CFEB",
"y. c #A8D0EB",
"u. c #A9D0EB",
"i. c #AAD0EB",
"p. c #AAD1EB",
"a. c #ABD1EB",
"s. c #ACD2EB",
"d. c #ADD2EB",
"f. c #AFD3EC",
"g. c #B0D4EC",
"h. c #B0D4ED",
"j. c #B1D4ED",
"k. c #B2D4ED",
"l. c #B2D5ED",
"z. c #B3D5ED",
"x. c #B3D6ED",
"c. c #B4D6ED",
"v. c #B6D7EE",
"b. c #B6D8EE",
"n. c #B7D8EE",
/* pixels */
"                                                                        ",
"                                                                        ",
"                                                                        ",
"                                              .                         ",
"                .       . . . . . . . . . . . .                         ",
"                . . . . . . . . o . o o o . X o .                       ",
"                . . X . o o + % $ o $ $ $ # o o . X .                   ",
"              . X X X $ $ $ ; ; , , > > ; & $ $ # o . . .               ",
"              X o # $ & , 1 5 8 8 e e 8 8 5 1 , & # # X X X             ",
"            X X $ & , 5 8 u i j k k k k d i u 8 5 , & # o X X           ",
"          O o $ & < 9 t j b V A G G G F A V b j y 9 , & $ o X .         ",
"      . O o & & 2 e d n A I ] &.,.4.4.:.&.] E F b d e < , # o X .       ",
"    . . o # & 5 e j V I @.5.e.e.w.w.w.w.e.e.4.[ I V j t 2 & # o .       ",
"    X X o & 2 e j C ! ,.e.t.t.t.w.w.w.t.t.t.t.e.,.! V j e < & # X .     ",
"    . X & , 9 d V ^ 4.t.a.a.t.,.[ ` ] [ ,.t.a.a.t.5.^ V d 9 , # X .     ",
"  . X @ & 5 y M E 1.a.g.g.e.@./ R G K W / @.e.f.g.t.,.I M y 5 & # . .   ",
". . o $ , e j F %.s.g.g.s.[ W F V b b N F W [ a.z.g.t.%.F j 9 , $ o .   ",
". X o $ < y m / 8.g.z.g.&.! A n s u u i k A / *.g.z.g.e.W M t < & o X . ",
". X o ; 5 d A [ s.z.z.t._ G k i 5 1 5 5 i n G ) t.z.z.t.| A d 5 & $ . . ",
". o $ , 8 j G =.g.z.g.-.~ C s 5 > ; ; > 8 s V ^ -.z.n.g.-.G l 9 ; $ o . ",
"X o $ , 8 c I 5.z.n.z.%.I n t < ; % + & 1 u b R @.g.n.g.5.I k e , $ o . ",
"X o $ , e c E e.z.n.k.{ I n e , % X + % , 8 k G | z.n.z.7.I n e , $ o . ",
". o $ , e c E e.z.n.k.{ G k e , % + + % , 8 k U { f.n.z.7.E n e , $ o . ",
". o $ , e c I 5.k.n.k.$.I n t < % % % % 1 u N U @.z.n.g.5.I k 9 , $ o . ",
". o $ , 8 j G =.g.n.b.=.! V s 5 , ; ; , 5 d V ! -.z.v.f.=.G k 8 , # X X ",
". X $ & 5 d A @.t.b.z.w.` G n i 5 1 1 8 i b G ` t.z.v.t.[ D d 9 & @ X X ",
". . o & 2 y m ! 7.g.b.g.*./ F k d u u i k F W *.g.z.k.7.W m y 2 & X O   ",
". . o $ , 8 j F %.t.g.g.t.[ ! F m b b m F ! O.t.k.k.t.$.D j 8 , # X     ",
"  . . # & 5 y m I 4.t.g.g.w.[ ^ I L L I / O.w.f.g.t.1.I m y 5 & # O     ",
"    . o $ > 8 d V ! 4.t.d.d.a.:.[ ] ] [ ,.p.d.d.t.5.W V d 8 > $ o .     ",
"    . . % $ 1 w j V ! ,.w.t.t.t.t.w.w.t.w.t.t.y.,.W C j w 2 & % X .     ",
"    . . . $ ; 1 e j V I @.4.e.w.w.w.w.w.w.w.5.[ I V j w 2 & $ . .       ",
"      . X o # , 2 e d n C I ] &.,.4.4.,.&.] I A b d 8 2 , # X X .       ",
"        . X o $ & < 9 u j n V A G G G F A m b j y 9 < & $ o X .         ",
"          . X o # & , 5 9 t y j j k l j j y u 8 1 , & $ o X .           ",
"            . X o o # & , 2 5 9 9 9 e 9 9 5 < , & $ $ o X .             ",
"              . . X X # # $ & , , , , , , & & # $ o . . .               ",
"                  X X X o o # # # # # # # # o o X . .                   ",
"                      . . X . X o o o o X X X . .                       ",
"                          . . . . . . . . X .   .                       ",
"                                                                        ",
"                                                                        ",
"                                                                        ",
"                                                                        "
};
