/* XPM */
static char *stick-toggled-pressed[] = {
/* columns rows colors chars-per-pixel */
"36 44 163 2",
"   c #0E7BC6",
".  c #0F7CC6",
"X  c #107CC6",
"o  c #117DC7",
"O  c #127DC7",
"+  c #137EC7",
"@  c #147EC7",
"#  c #157FC8",
"$  c #167FC8",
"%  c #1780C8",
"&  c #1881C8",
"*  c #1981C9",
"=  c #1A82C9",
"-  c #1B82C9",
";  c #1C83C9",
":  c #1D83CA",
">  c #1E84CA",
",  c #1F84CA",
"<  c #2185CA",
"1  c #2286CB",
"2  c #2386CB",
"3  c #2487CB",
"4  c #2587CB",
"5  c #2688CC",
"6  c #2788CC",
"7  c #298ACC",
"8  c #2A8BCD",
"9  c #2B8BCD",
"0  c #2D8CCD",
"q  c #2E8DCE",
"w  c #2F8DCE",
"e  c #318ECE",
"r  c #328FCE",
"t  c #338FCF",
"y  c #3490CF",
"u  c #3590CF",
"i  c #3892D0",
"p  c #3993D0",
"a  c #3A93D1",
"s  c #3B94D1",
"d  c #3C94D1",
"f  c #3D95D1",
"g  c #3E95D1",
"h  c #3F96D2",
"j  c #4197D2",
"k  c #4398D3",
"l  c #4599D3",
"z  c #469AD3",
"x  c #479AD3",
"c  c #499BD4",
"v  c #4A9CD4",
"b  c #4D9ED5",
"n  c #4E9ED5",
"m  c #509FD6",
"M  c #52A0D6",
"N  c #53A1D6",
"B  c #54A1D7",
"V  c #56A2D7",
"C  c #58A3D7",
"Z  c #59A4D8",
"A  c #5AA4D8",
"S  c #5DA7D9",
"D  c #5EA7D9",
"F  c #60A8D9",
"G  c #60A9D9",
"H  c #61A9D9",
"J  c #60A8DA",
"K  c #61A9DA",
"L  c #65ABDB",
"P  c #67ACDB",
"I  c #68ACDB",
"U  c #68ADDB",
"Y  c #77B5DF",
"T  c #78B5DF",
"R  c #79B5DF",
"E  c #7EB8E0",
"W  c #7FB9E0",
"Q  c #80B9E1",
"!  c #81BAE1",
"~  c #82BBE2",
"^  c #84BCE2",
"/  c #87BDE3",
"(  c #88BEE3",
")  c #89BEE3",
"_  c #8ABFE3",
"`  c #8BBFE4",
"'  c #8CC0E4",
"]  c #8DC0E4",
"[  c #8FC1E4",
"{  c #8FC2E5",
"}  c #90C2E5",
"|  c #91C2E5",
" . c #91C3E5",
".. c #92C3E5",
"X. c #93C4E5",
"o. c #95C5E6",
"O. c #96C5E6",
"+. c #96C6E6",
"@. c #96C6E7",
"#. c #97C6E6",
"$. c #9BC8E7",
"%. c #9CC8E7",
"&. c #9CC9E7",
"*. c #9DC9E7",
"=. c #9DC9E8",
"-. c #9ECAE8",
";. c #9FCAE8",
":. c #A0CBE9",
">. c #A1CCE9",
",. c #A2CCE9",
"<. c #A3CCE9",
"1. c #A3CDE9",
"2. c #A4CDE9",
"3. c #A5CDE9",
"4. c #A4CDEA",
"5. c #A5CEE9",
"6. c #A5CEEA",
"7. c #A6CEEA",
"8. c #A7CFEA",
"9. c #A7D0EB",
"0. c #A8D0EB",
"q. c #A9D0EB",
"w. c #AAD1EB",
"e. c #ABD1EB",
"r. c #ACD2EB",
"t. c #AED2EC",
"y. c #AED3EC",
"u. c #AFD3EC",
"i. c #B0D4EC",
"p. c #B0D4ED",
"a. c #B1D4ED",
"s. c #B1D5EC",
"d. c #B1D5ED",
"f. c #B2D4ED",
"g. c #B2D5ED",
"h. c #B3D5ED",
"j. c #B3D6ED",
"k. c #B4D6ED",
"l. c #B5D6ED",
"z. c #B4D6EE",
"x. c #B4D7EE",
"c. c #B5D7EE",
"v. c #B6D8EE",
"b. c #B7D8EE",
"n. c #B8D8EE",
"m. c #B9D9EF",
"M. c #BAD9EF",
"N. c #BADAEF",
"B. c #BBDAEF",
"V. c #BCDAEF",
"C. c #BDDBEF",
"Z. c #BFDCEF",
"A. c #BFDCF0",
"S. c #C0DCF0",
"D. c #C5DFF1",
"F. c #C7E0F1",
"G. c #C8E0F2",
"H. c #C9E1F2",
"J. c #CBE3F3",
"K. c #CFE5F3",
"L. c #D4E7F5",
"P. c #D5E8F5",
"I. c #DAEBF6",
/* pixels */
"                                                                        ",
"                                                                        ",
"                                              .                         ",
"                                              .                         ",
"                          . . X . . . . . . . .                         ",
"                    X . . X X o X X o o o X X X .                       ",
"                    O O o o o # $ $ $ o $ $ o o . X .                   ",
"              .     O # # & & , , , , , ; & $ $ # o . . .               ",
"              X o # $ & , 2 5 8 8 0 0 8 8 5 2 , & # # o X .             ",
"            X X $ & , 5 8 e t h h j j h h t e 8 5 , & $ o X .           ",
"          O o $ & < 8 t h x b B C Z Z Z m b x h e 8 < & $ o X .         ",
"      . O o & & < w a x m S E ` #.%.$.#.) E J m x a w < , # o X .       ",
"    . . o # & 5 e h b S ! *.8.8.8.q.q.q.8.8.%.! S b h w 2 & # o .       ",
"    X X o & 2 w h m P #.8.r.u.r.r.u.r.u.u.r.r.8.#.I b h w < & # X .     ",
"    . X & , 8 a b I *.e.j.j.u.,.#.) ` #.<.j.j.j.r.%.P b a 8 , # X .     ",
"  . X @ & 5 t v H #.r.j.h.j.#.) / / / ) ` #.u.h.h.r.#.H v t 5 & # . .   ",
". X o $ , w j B ^ r.h.n.j.#.{ ) ) ) ) ) ) _ #.h.n.h.q.^ V h 8 , $ o .   ",
"  X o & < t v I 8.h.n.n.,.{ ) { 8.j.z.8.{ { { ,.n.n.j.1.L v y 2 & o X . ",
"X X @ & 5 a m R e.x.B.h.| { | j.A.S.S.A.u.{ {  .h.n.n.q.R m a 5 & $ . . ",
". o o , 8 h Z #.j.n.n.8.{ { 8.S.D.J.J.D.A.8.{ | 8.B.B.j.#.Z h 8 ; $ o . ",
". o # , 0 k S *.j.B.B.%.{  .h.F.K.L.L.K.F.h.| { %.B.n.j.*.D k w , $ o . ",
". o # , w j H 8.h.B.B.#.| | B.H.L.I.I.L.H.C. .{ #.C.C.x.8.D k w , $ o . ",
". o # < 0 x H 8.h.B.B.#.{ | B.H.L.I.I.L.H.A.| { #.n.C.h.8.D x w , $ o . ",
". o # , 0 x S ,.h.B.B.%.| | h.D.K.L.L.K.D.h.| { $.C.B.j.%.D k 8 , $ o . ",
". o # , 8 h Z #.j.B.B.8.{ { 1.A.F.K.J.F.C.8.{ | 8.n.n.j. .Z k 8 , # X X ",
". X # & 5 a V R r.h.B.j.| ` { j.A.S.C.C.u.| {  .j.B.x.e.R V a 5 & @ X X ",
"  X o & 2 e v L 1.j.n.B.,.| ` | 1.z.h.8.| { { *.B.n.j.1.P v t < & X O   ",
"  . o # , 8 h V / q.h.n.h.@.{ ) ) ) _ ) ) _ #.x.x.x.e.~ V h 8 , # X     ",
"    O # & 2 t v H O.r.h.z.r.@.) / / / ) ^ #.j.h.j.r.$.D x y 5 & # O     ",
"      o # < 8 g b I *.r.u.j.j.1. ._ _  .1.j.j.u.e.$.P b a 8 , # o .     ",
"    . X # & < w g m P @.0.r.r.r.u.u.u.u.u.u.y.e.#.P n h w < $ o X .     ",
"        o # & 2 w g b S ! *.8.9.9.q.q.9.8.8.*.R D v h w 2 ; $ o .       ",
"      . X X $ , < w a x m D R { #.$.$.#.) E H m v a 8 < , # X X X       ",
"        . X o & & < 8 y h x b m Z Z Z C m v x a t 8 < & # o X X         ",
"          X X X # & , 5 w e a a h j j h h t e 8 4 , & $ o X .           ",
"            X X o o # & , < 2 8 8 0 0 8 8 5 2 , & # # o X .             ",
"              . . X X # # & & , , , , , , & & # # X X . .               ",
"                  . X X X X # $ # # # # # # o o X X .                   ",
"                      . . X . X o o o o X X X . .                       ",
"                        . . . . . . . . . X .                           ",
"                                                                        ",
"                                                                        ",
"                                                                        ",
"                                                                        "
};
